<svg width="141" height="125" viewBox="0 0 141 125" fill="none" xmlns="http://www.w3.org/2000/svg">
<g clip-path="url(#clip0_114_969)">
<g opacity="0.2" filter="url(#filter0_f_114_969)">
<rect x="13.25" y="10" width="115" height="115" rx="57.5" fill="url(#paint0_linear_114_969)"/>
</g>
<g opacity="0.5">
<path d="M11 37.2926C11 35.4742 12.4742 34 14.2926 34C16.1111 34 17.5853 35.4742 17.5853 37.2926V37.3685C17.5853 39.187 16.1111 40.6612 14.2926 40.6612C12.4742 40.6612 11 39.187 11 37.3685V37.2926Z" fill="#FFB900"/>
<path d="M115.293 117.585C113.474 117.585 112 116.111 112 114.293C112 112.474 113.474 111 115.293 111H115.369C117.187 111 118.661 112.474 118.661 114.293C118.661 116.111 117.187 117.585 115.369 117.585H115.293Z" fill="#FFB900"/>
<path d="M125.25 23.5097C125.215 26.0169 123.165 28.0436 120.706 27.9993C118.195 27.9541 116.213 25.8748 116.251 23.3256C116.286 20.9424 118.368 18.9716 120.819 19.0003C123.268 19.0291 125.283 21.0788 125.25 23.5088V23.5097ZM122.598 23.4825C122.595 22.4786 121.766 21.6374 120.784 21.6423C119.767 21.6473 118.887 22.5181 118.883 23.5212C118.881 24.5226 119.735 25.3458 120.768 25.3375C121.807 25.3293 122.602 24.5242 122.598 23.4825Z" fill="#FFB900"/>
<path d="M130.281 35.6672C130.272 36.5982 129.549 37.3001 128.612 37.2898C127.711 37.2795 127 36.5612 127 35.659C127 34.7208 127.762 33.9779 128.703 34.0005C129.588 34.0211 130.29 34.763 130.281 35.6683V35.6672Z" fill="#FFB900"/>
<path d="M124.281 108.667C124.272 109.598 123.549 110.3 122.612 110.29C121.711 110.28 121 109.561 121 108.659C121 107.721 121.762 106.978 122.703 107.001C123.588 107.021 124.29 107.763 124.281 108.668V108.667Z" fill="#FFB900"/>
<path d="M12.2811 46.6672C12.2718 47.5982 11.5494 48.3001 10.6123 48.2898C9.71109 48.2795 9 47.5612 9 46.659C9 45.7208 9.76247 44.9779 10.7027 45.0005C11.5885 45.0211 12.2903 45.763 12.2811 46.6683V46.6672Z" fill="#FFB900"/>
<path fill-rule="evenodd" clip-rule="evenodd" d="M18.6066 100.744C18.6066 100.91 18.607 101.075 18.6074 101.241C18.6083 101.627 18.6092 102.014 18.6052 102.4C18.5989 103.049 18.0954 103.556 17.4733 103.551C16.8498 103.546 16.3555 103.04 16.3527 102.388C16.3478 101.307 16.3478 100.226 16.3534 99.1453C16.357 98.4936 16.8548 97.9972 17.4846 98C18.1102 98.0028 18.5996 98.5049 18.6052 99.158C18.6086 99.5199 18.6077 99.8814 18.6068 100.243L18.6068 100.243C18.6063 100.41 18.6059 100.577 18.6059 100.744H18.6066ZM20.9309 105.909C21.1009 105.908 21.271 105.908 21.4411 105.908L21.4404 105.906H22.2518C22.3459 105.906 22.4401 105.906 22.5342 105.907C22.7225 105.908 22.9106 105.909 23.0984 105.904C23.7706 105.888 24.2486 105.42 24.2501 104.784C24.2515 104.135 23.7593 103.647 23.0751 103.643C21.982 103.636 20.8883 103.637 19.7952 103.643C19.1011 103.647 18.6125 104.121 18.6096 104.772C18.6068 105.425 19.0905 105.897 19.7832 105.906C20.1659 105.911 20.5483 105.91 20.9308 105.909H20.9309ZM13.0284 105.908H13.0285H13.0286C13.2 105.908 13.3713 105.907 13.5426 105.907L13.5419 105.908C13.7065 105.908 13.8712 105.908 14.0358 105.909C14.412 105.91 14.7883 105.911 15.1646 105.906C15.8622 105.898 16.3494 105.432 16.3494 104.784C16.3494 104.135 15.8587 103.649 15.173 103.644C14.08 103.636 12.9862 103.637 11.8931 103.644C11.2004 103.648 10.7118 104.124 10.709 104.774C10.7062 105.426 11.1892 105.896 11.8854 105.906C12.2662 105.911 12.6474 105.91 13.0284 105.908H13.0284H13.0284ZM18.6087 108.884C18.6083 108.722 18.608 108.56 18.608 108.398C18.608 108.234 18.6084 108.069 18.6089 107.905C18.6099 107.529 18.611 107.153 18.6065 106.777C18.5988 106.13 18.0932 105.624 17.4704 105.63C16.8427 105.636 16.3562 106.138 16.354 106.794C16.3505 107.863 16.3505 108.932 16.354 110.001C16.3562 110.677 16.8504 111.185 17.4888 111.179C18.1172 111.172 18.6002 110.676 18.6065 110.019C18.6105 109.641 18.6096 109.263 18.6087 108.884Z" fill="#FFB900"/>
</g>
<path fill-rule="evenodd" clip-rule="evenodd" d="M60.3418 30.9438C60.3418 31.3847 60.3429 31.8256 60.344 32.2665C60.3466 33.2952 60.3492 34.3239 60.3377 35.3525C60.3274 36.222 60.6706 36.8386 61.4373 37.2764C63.986 38.7295 66.5244 40.1991 69.0566 41.6811C69.815 42.125 70.4995 42.1065 71.26 41.6584C73.7572 40.1847 76.271 38.7357 78.795 37.3093C79.5966 36.855 79.9604 36.2322 79.9542 35.3176C79.9357 32.4483 79.9357 29.5769 79.9542 26.7076C79.9604 25.793 79.613 25.1599 78.8094 24.7057C76.2566 23.2607 73.7141 21.7932 71.1819 20.3113C70.4501 19.8837 69.7904 19.9043 69.0689 20.3257C66.5346 21.8035 63.9921 23.2669 61.4435 24.7201C60.685 25.1517 60.3233 25.7683 60.3356 26.6418C60.3485 27.6397 60.3454 28.6377 60.3424 29.6363C60.3411 30.0733 60.3397 30.5105 60.3397 30.9479L60.3418 30.9438ZM74.0713 26.9263C74.453 26.7041 74.841 26.4783 75.2374 26.2482C74.811 26.0031 74.3972 25.7641 73.9925 25.5303L73.9925 25.5303C72.8198 24.8528 71.723 24.2191 70.6125 23.6081C70.3823 23.4827 69.9815 23.4211 69.7739 23.5362C68.6236 24.1701 67.4903 24.8325 66.2998 25.5283L66.2993 25.5286L66.2978 25.5295C65.8872 25.7695 65.4697 26.0134 65.0424 26.2616C65.4357 26.4885 65.822 26.712 66.203 26.9325C67.455 27.6569 68.6512 28.3491 69.8582 29.022C70.0185 29.1104 70.3268 29.0816 70.4974 28.985C71.6733 28.3218 72.8397 27.643 74.0704 26.9268L74.0713 26.9263ZM76.7815 30.2989V30.2994C76.783 31.7761 76.7843 33.161 76.7684 34.5448C76.7684 34.7092 76.6204 34.9394 76.4724 35.0257C75.3446 35.6926 74.2076 36.3457 72.9944 37.0425C72.5847 37.2778 72.1664 37.5181 71.7368 37.7656C71.7368 37.3143 71.7364 36.8737 71.736 36.4411C71.7346 34.9624 71.7332 33.579 71.7491 32.1955C71.7491 32.029 71.8951 31.7926 72.0431 31.7063C73.2085 31.0206 74.3825 30.3484 75.6365 29.6303C76.0102 29.4164 76.391 29.1984 76.7807 28.9747V28.9788C76.7807 29.4275 76.7811 29.8662 76.7815 30.297V30.2975V30.298V30.2985V30.2989ZM67.5057 37.17C67.8473 37.3668 68.1952 37.5673 68.551 37.7726C68.551 37.3496 68.5513 36.9357 68.5517 36.5291V36.5259V36.5227V36.5196V36.5165V36.5134C68.5531 35.0022 68.5543 33.591 68.5366 32.1811C68.5345 32.0167 68.3742 31.7906 68.2242 31.7022C67.0715 31.0252 65.9116 30.3604 64.6594 29.6428L64.6592 29.6427C64.2881 29.43 63.9089 29.2127 63.5194 28.9891C63.5194 29.3936 63.5191 29.7909 63.5189 30.1824V30.1828V30.1832V30.1836V30.184V30.185C63.5179 31.7239 63.517 33.1734 63.5317 34.6229C63.5338 34.7585 63.6715 34.9456 63.7969 35.0196C64.9991 35.7256 66.2065 36.4214 67.5057 37.17ZM48.843 75.5535C48.8415 74.5663 48.8399 73.5791 48.8399 72.5919L48.8419 72.596C48.8419 71.5994 48.8433 70.6026 48.8447 69.6057C48.8484 66.9472 48.852 64.2878 48.8296 61.6285C48.8193 60.6255 49.1996 59.9801 50.0731 59.4807C56.3482 55.8858 62.6109 52.2704 68.8593 48.6324C69.7554 48.1082 70.5056 48.0938 71.4182 48.6262C77.6357 52.2539 83.8718 55.8508 90.1222 59.4252C91.0574 59.9596 91.4746 60.6234 91.4705 61.719C91.4397 68.8943 91.4397 76.0696 91.4705 83.245C91.4767 84.3343 91.0738 85.0064 90.1325 85.5449C83.882 89.1172 77.6481 92.7161 71.4285 96.3418C70.52 96.8701 69.7698 96.8742 68.8675 96.348C62.6191 92.71 56.3564 89.0925 50.0813 85.5018C49.1605 84.9756 48.8173 84.285 48.8275 83.2532C48.8513 80.6873 48.8472 78.1215 48.843 75.5556V75.5535ZM84.5177 62.3874L86.7575 61.0921H86.7555C83.1709 59.0244 79.7158 57.0306 76.2607 55.0349C75.7844 54.7596 75.3089 54.4829 74.8333 54.2062C73.4801 53.419 72.1267 52.6316 70.7564 51.8757C70.4625 51.7113 69.9383 51.6414 69.6711 51.7935C65.1528 54.3704 60.6495 56.976 56.1457 59.5818C55.3904 60.0188 54.6351 60.4558 53.8797 60.8927C53.8264 60.9239 53.7765 60.9616 53.7096 61.0121C53.6846 61.0309 53.6573 61.0516 53.6265 61.0744C53.6092 61.0871 53.5909 61.1005 53.5714 61.1147C53.8094 61.2519 54.0415 61.3845 54.2689 61.5145C54.8524 61.8481 55.4052 62.164 55.9494 62.4938C56.8168 63.018 57.1169 63.8977 56.7161 64.6582C56.2865 65.4741 55.3678 65.7002 54.4202 65.1946C53.8978 64.916 53.3838 64.6213 52.8374 64.308C52.5777 64.1591 52.3107 64.0059 52.0319 63.8483C52.0224 63.983 52.0124 64.1018 52.0033 64.2101C51.9849 64.4291 51.9702 64.6047 51.9702 64.7794L51.9683 67.0898V67.093V67.0934V67.0938V67.0941V67.0945V67.0949C51.9638 72.1003 51.9593 77.1046 51.9949 82.1104C51.9969 82.5256 52.2785 83.1257 52.6156 83.3231C56.8326 85.8001 61.0721 88.2405 65.3108 90.6804C66.1895 91.1863 67.0682 91.6921 67.9467 92.1982C68.0368 92.2506 68.133 92.2934 68.2619 92.3507L68.2621 92.3507L68.2623 92.3508L68.2636 92.3514L68.264 92.3516C68.3316 92.3816 68.4082 92.4157 68.4975 92.4572C68.5064 92.3142 68.5164 92.1831 68.5259 92.0599L68.5259 92.0598C68.5448 91.8128 68.5612 91.5975 68.5612 91.3822C68.5618 89.9185 68.5612 88.4547 68.5606 86.9908V86.9906V86.9904V86.9903V86.9901V86.99V86.9898V86.9881C68.559 82.7792 68.5574 78.5693 68.5818 74.3595C68.5859 73.6052 68.3434 73.2126 67.6918 72.8509C65.995 71.9097 64.3169 70.9332 62.6391 69.9568C61.9573 69.56 61.2755 69.1633 60.5925 68.7689C59.8505 68.3414 59.3511 67.7782 59.6121 66.8554C59.9204 65.766 60.9728 65.4063 62.0847 66.0394C63.0931 66.6134 64.0973 67.1943 65.1014 67.7752L65.1022 67.7757L65.1024 67.7758L65.1026 67.7759L65.1028 67.776L65.1029 67.7761L65.1031 67.7762L65.1033 67.7763C66.5507 68.6136 67.9979 69.4508 69.4574 70.2673C69.778 70.4461 70.3412 70.5407 70.6248 70.3803C75.232 67.7583 79.8208 65.1041 84.5155 62.3887L84.5174 62.3876L84.5177 62.3874ZM88.2895 64.1073C88.2767 64.04 88.2605 63.9546 88.2415 63.8401V63.8381L86.7684 64.6875L86.7619 64.6912L86.738 64.705L86.7169 64.7171C84.8028 65.8208 82.9386 66.8958 81.0744 67.9694C80.3976 68.3594 79.7202 68.7486 79.0428 69.1378C76.8505 70.3973 74.6581 71.6568 72.485 72.9475C72.1458 73.1489 71.7656 73.6381 71.7635 73.9957C71.7259 79.2026 71.7304 84.4111 71.7349 89.6183V89.6194L71.7368 91.9351C71.7368 92.0196 71.7543 92.104 71.7762 92.2096C71.7878 92.2659 71.8007 92.3282 71.8129 92.3996C71.8944 92.3665 71.9728 92.3374 72.048 92.3094L72.0481 92.3094L72.0482 92.3094C72.206 92.2508 72.35 92.1973 72.4809 92.1221L73.8317 91.3438L73.8326 91.3433L73.8334 91.3428L73.8342 91.3423L73.8351 91.3419L73.8359 91.3414L73.8367 91.3409C78.4391 88.6892 83.0414 86.0376 87.6249 83.3518C87.9558 83.1586 88.297 82.6448 88.2991 82.2769C88.3327 77.1233 88.3282 71.9681 88.3237 66.8141V66.813V66.8126C88.323 65.9875 88.3222 65.1625 88.3217 64.3375C88.3217 64.2768 88.31 64.2152 88.2895 64.1073ZM120.572 66.776L120.572 66.776C120.261 66.5061 119.95 66.2364 119.6 66.0312C118.561 65.4172 117.515 64.8157 116.469 64.2143L116.469 64.2142L116.469 64.2142L116.469 64.2141L116.469 64.2141L116.469 64.2139L116.468 64.2138C115.147 63.4542 113.826 62.6946 112.52 61.9101C111.658 61.3922 110.916 61.351 110.047 61.869C107.583 63.3345 105.096 64.7609 102.602 66.175C101.84 66.6087 101.478 67.1822 101.486 68.0742C101.513 71.0134 101.513 73.9546 101.486 76.8938C101.478 77.7859 101.838 78.3614 102.6 78.793C105.094 80.2071 107.579 81.6397 110.045 83.099C110.867 83.5862 111.589 83.6108 112.427 83.1093C113.785 82.3001 115.155 81.5114 116.526 80.7228L116.526 80.7226L116.526 80.7225L116.526 80.7225L116.526 80.7224L116.526 80.7223L116.527 80.7222L116.527 80.7222C117.641 80.0808 118.756 79.4394 119.864 78.7868C120.155 78.615 120.408 78.3764 120.661 78.1382C120.777 78.0288 120.893 77.9195 121.012 77.8167V67.1493L121.017 67.1513C120.866 67.0307 120.719 66.9034 120.572 66.776L120.572 66.776L120.572 66.776L120.572 66.776ZM117.941 71.7233V71.7235C117.942 73.1693 117.943 74.511 117.927 75.8538C117.925 76.0552 117.82 76.3512 117.668 76.4437C116.428 77.1862 115.174 77.9092 113.85 78.6725L113.849 78.6727L113.849 78.6729C113.505 78.8709 113.157 79.0716 112.803 79.276C112.803 78.8033 112.803 78.3418 112.802 77.8889V77.8884V77.8878V77.8873V77.8868V77.8863V77.8858V77.8852V77.8849V77.8848C112.8 76.4666 112.799 75.1321 112.816 73.7964C112.818 73.5991 112.949 73.3195 113.11 73.2229C114.325 72.4982 115.552 71.7927 116.864 71.0378L116.864 71.0378L116.864 71.0375C117.215 70.8354 117.573 70.6298 117.938 70.4194L117.94 70.4214C117.94 70.8658 117.94 71.2985 117.941 71.7223V71.7225V71.7226V71.7228V71.723V71.7232V71.7233ZM109.718 79.2822C109.349 79.0709 108.987 78.8641 108.631 78.6604C107.334 77.919 106.111 77.2201 104.898 76.5074C104.754 76.4232 104.613 76.1888 104.611 76.0244C104.595 74.6341 104.596 73.2425 104.597 71.7629C104.598 71.3308 104.598 70.8912 104.598 70.442C104.955 70.6487 105.304 70.8512 105.649 71.0505C106.955 71.8063 108.183 72.5173 109.402 73.2476C109.562 73.3442 109.704 73.6196 109.706 73.8149C109.724 75.1994 109.722 76.584 109.721 78.0584L109.721 78.0601C109.721 78.4609 109.72 78.8684 109.72 79.2842L109.718 79.2822ZM115.184 68.4089L115.175 68.4139L115.175 68.414C113.947 69.1267 112.804 69.7899 111.652 70.4399C111.473 70.5407 111.165 70.6085 111.009 70.5222C109.742 69.8182 108.486 69.0935 107.173 68.3356L107.172 68.3355C106.833 68.1397 106.49 67.9417 106.142 67.7412C106.581 67.4874 107.006 67.2395 107.422 66.997L107.425 66.9958L107.425 66.9956L107.425 66.9956C108.575 66.3255 109.655 65.6963 110.752 65.096C110.995 64.9624 111.428 64.9377 111.663 65.0651C112.797 65.678 113.912 66.3227 115.098 67.0076C115.507 67.2438 115.924 67.4848 116.353 67.7309C115.958 67.9594 115.574 68.1823 115.198 68.4004L115.184 68.4089ZM70.7605 125C71.4938 124.567 72.2251 124.13 72.9565 123.693C74.7628 122.614 76.5695 121.534 78.4086 120.513C79.5349 119.888 80.0097 119.109 79.9727 117.814C79.8967 115.153 79.9254 112.489 79.9624 109.825C79.9768 108.789 79.6027 108.099 78.686 107.589C76.2155 106.212 73.7614 104.798 71.3319 103.351C70.4974 102.853 69.7801 102.859 68.9538 103.349C66.4894 104.806 64.0065 106.232 61.5154 107.64C60.6768 108.115 60.3274 108.775 60.3356 109.726C60.3603 112.561 60.3603 115.395 60.3356 118.228C60.3274 119.183 60.7035 119.823 61.5359 120.301C63.4331 121.393 65.3178 122.508 67.2026 123.623L67.2028 123.623L67.203 123.623L67.2032 123.623L67.2034 123.623L67.2036 123.623L67.2038 123.623L67.2059 123.625L67.2094 123.627L67.2128 123.629C67.9854 124.086 68.7579 124.543 69.5314 124.998H70.7626L70.7605 125ZM75.2453 109.219C74.8501 109.447 74.4674 109.653 74.0989 109.851C73.3214 110.269 72.607 110.653 71.9711 111.141C70.6659 112.142 69.5478 112.102 68.257 111.12C67.6106 110.628 66.8884 110.236 66.125 109.822L66.1249 109.822L66.1247 109.822L66.1246 109.822L66.1244 109.822L66.1244 109.822C65.7714 109.63 65.4096 109.434 65.0424 109.221C65.488 108.962 65.9188 108.711 66.3392 108.465C67.4955 107.79 68.5731 107.161 69.6629 106.555C69.8828 106.432 70.2734 106.391 70.481 106.504C71.6669 107.152 72.837 107.828 74.0843 108.548L74.0844 108.548L74.0844 108.548L74.0845 108.548C74.4628 108.767 74.8482 108.99 75.2433 109.217L75.2453 109.219ZM71.7327 120.743C71.7327 120.289 71.7321 119.846 71.7316 119.411C71.7298 117.966 71.7281 116.611 71.7471 115.257C71.7491 115.06 71.891 114.781 72.0533 114.684C73.1738 114.015 74.3057 113.362 75.5106 112.667L75.5108 112.667L75.5318 112.655C75.9403 112.42 76.3571 112.179 76.7848 111.932C76.7848 112.39 76.7854 112.837 76.7859 113.275V113.275C76.7877 114.725 76.7894 116.077 76.7704 117.428C76.7684 117.625 76.6122 117.903 76.4457 118.003C75.281 118.699 74.1065 119.375 72.8588 120.094L72.8504 120.099C72.4847 120.309 72.1126 120.524 71.7327 120.743ZM67.4992 120.135L67.4871 120.128L67.4864 120.128L67.4855 120.127C66.2261 119.402 65.0546 118.727 63.8894 118.04C63.7311 117.948 63.5338 117.747 63.5317 117.592C63.5121 116.143 63.5133 114.692 63.5146 113.146C63.5149 112.752 63.5153 112.352 63.5153 111.944C63.9411 112.191 64.355 112.429 64.7597 112.663L64.7602 112.663L64.7603 112.663L64.7612 112.664C65.9617 113.356 67.0807 114.001 68.1872 114.668C68.3721 114.779 68.5407 115.089 68.5448 115.311C68.5668 116.638 68.5648 117.967 68.5626 119.395V119.397V119.399V119.4V119.402C68.5619 119.84 68.5612 120.288 68.5612 120.747C68.1994 120.539 67.846 120.335 67.4992 120.135ZM19.2653 73.7825V73.7822V73.7818V73.7814V73.7811C19.2723 73.3515 19.2794 72.9219 19.2794 72.4933H19.2773C19.2773 72.0648 19.2705 71.6359 19.2637 71.207C19.2465 70.1298 19.2293 69.0531 19.3205 67.9858C19.3698 67.4021 19.7521 66.6293 20.2249 66.3353C22.0064 65.2324 23.8261 64.1892 25.6455 63.1462L25.6458 63.1461L25.6463 63.1458C26.461 62.6787 27.2756 62.2118 28.0867 61.7395C28.7444 61.3572 29.3528 61.3695 30.0105 61.7539C32.6024 63.2687 35.2024 64.7712 37.8107 66.2593C38.4705 66.6354 38.7993 67.1452 38.7973 67.9118C38.7849 70.9538 38.7849 73.9937 38.7973 77.0357C38.7993 77.7982 38.491 78.3203 37.8271 78.6985C35.2189 80.1866 32.6188 81.687 30.027 83.2038C29.3734 83.5882 28.7629 83.6231 28.1031 83.2388C27.3053 82.7746 26.5045 82.3155 25.7037 81.8565L25.7029 81.856C23.8695 80.8051 22.0365 79.7544 20.2413 78.643C19.7645 78.349 19.3719 77.5824 19.3225 77.0007C19.23 75.9347 19.2477 74.8582 19.2653 73.7825ZM35.6983 71.6996C35.6981 71.2871 35.6978 70.8672 35.6978 70.4379V70.4399C35.2901 70.6745 34.8934 70.9018 34.5053 71.1242L34.5047 71.1245C33.2746 71.8292 32.1312 72.4842 31.0033 73.1654C30.7936 73.2907 30.5963 73.6319 30.5922 73.8786C30.5659 75.1806 30.5687 76.4838 30.5717 77.8757V77.8769C30.5727 78.3347 30.5737 78.8021 30.5737 79.2822C31.027 79.0204 31.4708 78.7649 31.9073 78.5137L31.9078 78.5134L31.9085 78.513L31.9092 78.5126C33.1305 77.8097 34.2947 77.1397 35.4511 76.454C35.5868 76.3738 35.6875 76.121 35.6875 75.9463C35.7003 74.563 35.6994 73.1798 35.6983 71.7013V71.6996ZM26.3706 78.6374C26.7352 78.8461 27.1072 79.0591 27.4886 79.2781H27.4927C27.4927 78.8597 27.4931 78.45 27.4934 78.047C27.4948 76.5676 27.4961 75.1799 27.4783 73.7923C27.4762 73.5991 27.3344 73.3257 27.1741 73.2291C25.9916 72.5234 24.7982 71.8359 23.5297 71.1051L23.5275 71.1039L23.5269 71.1035L23.5263 71.1032L23.5259 71.1029L23.5128 71.0954C23.1352 70.8779 22.751 70.6565 22.3583 70.4297C22.3583 70.897 22.3575 71.3541 22.3567 71.8034C22.3542 73.2475 22.3518 74.6113 22.3768 75.9751C22.3789 76.1806 22.6091 76.454 22.8064 76.5711C23.957 77.2555 25.12 77.9213 26.3706 78.6374ZM33.0845 68.3078C33.427 68.1256 33.7784 67.9386 34.1336 67.733H34.1316C33.7395 67.5071 33.3564 67.2852 32.9798 67.0672L32.9771 67.0656L32.975 67.0644C31.7363 66.3472 30.5678 65.6707 29.3836 65.022C29.1781 64.9089 28.7835 64.9603 28.5594 65.0836C27.4204 65.7136 26.2947 66.3664 25.082 67.0695C24.7082 67.2863 24.3261 67.5079 23.9328 67.7351C24.2846 67.9391 24.6308 68.1265 24.9681 68.309C25.6911 68.7003 26.3733 69.0696 26.9829 69.5335C28.3786 70.5961 29.618 70.7154 31.0444 69.5602C31.6471 69.0727 32.3448 68.7014 33.0845 68.3078ZM55.6637 32.436C55.4523 32.5045 55.2747 32.5598 55.1199 32.6079L55.1198 32.6079C54.8248 32.6996 54.6128 32.7655 54.4079 32.8491C43.3623 37.3956 35.4861 45.167 30.7587 56.1324C30.251 57.3102 30.4935 58.1447 31.4205 58.5578C32.3249 58.9606 33.0998 58.5434 33.6177 57.341C38.008 47.1648 45.3169 39.9545 55.5651 35.7307C56.4448 35.369 57.121 34.8099 56.7962 33.8131C56.6718 33.4312 56.3454 33.1161 56.0379 32.8191C55.9034 32.6893 55.7725 32.5629 55.6637 32.436ZM30.5364 88.196C30.511 88.113 30.4875 88.0359 30.4648 87.9682L30.4627 87.9662C30.5038 87.0371 30.9252 86.4822 31.7124 86.3157C32.5736 86.1328 33.1203 86.5993 33.4965 87.3516C33.7698 87.8983 34.0348 88.4501 34.2998 89.002L34.2998 89.002C34.9655 90.3882 35.6312 91.7745 36.4295 93.08C41.013 100.574 47.4278 105.938 55.5651 109.25C56.7243 109.72 57.1477 110.551 56.7592 111.471C56.3996 112.327 55.5281 112.583 54.4079 112.121C43.3623 107.572 35.4861 99.8011 30.7587 88.8356C30.6651 88.6182 30.5957 88.3907 30.5364 88.1962L30.5364 88.196ZM108.253 58.7058L108.254 58.7057C107.342 58.652 106.949 57.9841 106.606 57.1848C103.207 49.249 97.834 43.0047 90.4223 38.5754C89.0512 37.7566 87.5939 37.0802 86.1371 36.404C85.5824 36.1465 85.0278 35.8891 84.4781 35.6239C83.7073 35.2518 83.1914 34.6558 83.4977 33.8521C83.6909 33.3465 84.2787 32.9087 84.7946 32.6374C85.0414 32.5074 85.4936 32.6934 85.8522 32.8408C85.8849 32.8543 85.9168 32.8674 85.9477 32.8799C94.8907 36.4994 101.838 42.4744 106.808 50.7227C107.786 52.3477 108.582 54.0897 109.374 55.8222C109.461 56.0114 109.547 56.2005 109.634 56.3894C110.156 57.5297 109.445 58.672 108.254 58.7057L108.255 58.7058H108.253ZM106.664 87.5983C107.044 86.8933 107.437 86.3157 108.247 86.2664C109.546 86.291 110.109 87.477 109.525 88.8623C106.082 97.0263 100.648 103.554 93.197 108.323C91.3723 109.49 89.3961 110.428 87.4238 111.364C86.8369 111.643 86.2503 111.921 85.6682 112.205C84.7535 112.651 83.8409 112.246 83.5203 111.445C83.1894 110.612 83.5511 109.805 84.4699 109.359C84.6646 109.264 84.866 109.184 85.0671 109.103C85.1823 109.057 85.2975 109.011 85.4113 108.962C92.2968 106.029 98.0169 101.589 102.274 95.4313C103.525 93.6212 104.547 91.6509 105.568 89.6834C105.93 88.9856 106.292 88.2881 106.664 87.5983Z" fill="#FFB900"/>
</g>
<defs>
<filter id="filter0_f_114_969" x="3.25" y="0" width="135" height="135" filterUnits="userSpaceOnUse" color-interpolation-filters="sRGB">
<feFlood flood-opacity="0" result="BackgroundImageFix"/>
<feBlend mode="normal" in="SourceGraphic" in2="BackgroundImageFix" result="shape"/>
<feGaussianBlur stdDeviation="5" result="effect1_foregroundBlur_114_969"/>
</filter>
<linearGradient id="paint0_linear_114_969" x1="70.75" y1="10" x2="70.75" y2="125" gradientUnits="userSpaceOnUse">
<stop stop-color="#FFB900"/>
<stop offset="1" stop-color="#FFB900" stop-opacity="0"/>
</linearGradient>
<clipPath id="clip0_114_969">
<rect width="140" height="125" fill="white" transform="translate(0.25)"/>
</clipPath>
</defs>
</svg>
