<svg width="141" height="125" viewBox="0 0 141 125" fill="none" xmlns="http://www.w3.org/2000/svg">
<g clip-path="url(#clip0_114_900)">
<path fill-rule="evenodd" clip-rule="evenodd" d="M121.422 60.5591V60.559V60.5589V60.5588V60.5587C121.421 59.3851 121.42 58.2115 121.42 57.038L121.419 57.0352C121.419 55.8731 121.421 54.7109 121.423 53.5488L121.423 53.5336C121.427 50.8496 121.431 48.1655 121.414 45.4815C121.394 42.4307 120.083 39.9954 117.459 38.4903C111.241 34.9246 104.973 31.4432 98.6799 28.0112C96.1383 26.6247 93.463 26.6816 90.9111 28.0738C84.7383 31.4413 78.575 34.8269 72.4412 38.2665C69.5791 39.8721 68.1347 42.3909 68.1347 45.6996C68.1344 48.6092 68.1347 51.5187 68.135 54.4281C68.1356 59.0822 68.1361 63.7362 68.1338 68.3906C68.1328 71.7013 69.5724 74.2191 72.426 75.8332C78.5162 79.2776 84.634 82.6755 90.7698 86.0383C93.317 87.4343 95.9591 87.3963 98.5452 86.0876C99.9022 85.401 101.227 84.648 102.551 83.8957L103.006 83.6371C104.073 83.0321 104.396 82.1169 103.911 81.2207C103.41 80.298 102.422 80.0875 101.301 80.6934L101.172 80.7634L101.172 80.7635L101.171 80.7636L101.171 80.7637L101.171 80.7638L101.171 80.7639L101.171 80.764C99.9348 81.4327 98.6979 82.102 97.485 82.8111C95.574 83.9292 93.7125 83.9055 91.7788 82.8187C86.0119 79.5782 80.2299 76.3624 74.4327 73.1769C72.3985 72.0588 71.4501 70.3954 71.4539 68.1023C71.4663 60.747 71.4663 53.3916 71.4539 46.0363C71.4492 43.7849 72.3729 42.1225 74.3615 41.0234C80.2413 37.7725 86.1134 34.5083 91.976 31.227C93.8026 30.2047 95.575 30.199 97.4006 31.2185C103.358 34.5462 109.323 37.8607 115.294 41.1647C117.216 42.2278 118.096 43.8637 118.096 46.0202C118.097 48.375 118.096 50.7299 118.096 53.0847C118.095 58.0852 118.094 63.0857 118.1 68.0862C118.104 70.3338 117.19 72.0114 115.19 73.0972C113.075 74.2465 110.972 75.4198 108.87 76.5931L108.87 76.5931L108.87 76.5932L108.87 76.5932L108.87 76.5933L108.869 76.5938L108.867 76.5947L108.099 77.0234C107.002 77.636 106.646 78.5132 107.103 79.4056C107.579 80.3321 108.578 80.573 109.685 79.968C110.274 79.647 110.864 79.3284 111.453 79.0098L111.455 79.009C113.425 77.9447 115.395 76.8803 117.313 75.7289C120.006 74.1129 121.411 71.6671 121.418 68.4873C121.425 65.8448 121.423 63.2019 121.422 60.5591ZM44.5102 56.5772L44.5101 56.5769C44.3701 56.0819 44.2255 55.5707 44.08 55.0352V55.0314C44.4511 55.1368 44.8002 55.2292 45.1327 55.3171C45.8385 55.5038 46.4692 55.6706 47.0758 55.9001C47.9881 56.2463 48.8008 56.1875 49.6638 55.7579C50.7781 55.2031 51.918 54.6919 53.0769 54.2415C53.442 54.1002 53.956 54.0878 54.3164 54.2301C54.9392 54.4763 55.5502 54.7528 56.1611 55.0292L56.1612 55.0292L56.1612 55.0292L56.1613 55.0293L56.1613 55.0293L56.1614 55.0293L56.1614 55.0293C56.8752 55.3523 57.5886 55.6751 58.3203 55.9494C58.8229 56.1382 59.4972 56.1732 59.9998 56.0025C61.1817 55.6014 62.3248 55.0762 63.4628 54.5534L63.6319 54.4757C64.6675 53.9996 65.0345 53.0911 64.622 52.1921C64.2019 51.276 63.227 50.8255 62.2749 51.4401C60.0795 52.8569 58.0367 52.6293 55.9551 51.2883C55.7629 51.1644 55.545 51.0816 55.3265 50.9986C55.1538 50.933 54.9808 50.8672 54.82 50.781C54.0916 50.3912 53.4012 50.3931 52.6435 50.7535C51.4258 51.3329 50.1873 51.8782 48.9232 52.3457C48.4509 52.5212 47.8487 52.5705 47.3641 52.4472C46.427 52.2078 45.5004 51.9282 44.5736 51.6486C43.845 51.4288 43.1163 51.2089 42.3825 51.0086C40.8291 50.5847 39.7878 51.6354 40.1899 53.2021C40.42 54.0993 40.6585 54.9944 40.897 55.8893C41.2639 57.2665 41.6308 58.6436 41.9671 60.0283C42.0894 60.5318 42.0705 61.1293 41.9254 61.6281C41.688 62.4432 41.4242 63.2508 41.1605 64.0583C40.8121 65.1252 40.4638 66.1917 40.1766 67.2745C39.9775 68.0247 39.9613 68.9142 40.1586 69.6615C40.4584 70.7953 40.8233 71.9116 41.1883 73.0283L41.1883 73.0283C41.4467 73.8188 41.7051 74.6094 41.9405 75.4066C42.0676 75.8352 42.0686 76.3663 41.9396 76.794C41.689 77.6249 41.416 78.4491 41.1432 79.2732L41.1431 79.2734L41.143 79.2735L41.143 79.2736C40.7747 80.386 40.4064 81.4982 40.0932 82.6263C39.9035 83.3119 39.9092 84.1398 40.0979 84.8274C40.4135 85.9745 40.7837 87.1064 41.154 88.2387C41.4179 89.0459 41.682 89.8532 41.9263 90.6663C42.0449 91.0618 42.0449 91.5549 41.9263 91.9504C41.6978 92.714 41.4487 93.4719 41.1997 94.2298L41.1996 94.2301C40.8224 95.378 40.4452 96.5256 40.1396 97.6926C39.9348 98.475 39.949 99.4034 40.1558 100.189C40.4486 101.3 40.8086 102.392 41.1687 103.485L41.1687 103.485L41.1687 103.486L41.1688 103.486C41.4256 104.265 41.6824 105.045 41.9149 105.831C42.0524 106.296 42.0619 106.856 41.9453 107.327C41.6295 108.601 41.2889 109.869 40.9484 111.138L40.9483 111.138L40.9482 111.138C40.6701 112.174 40.392 113.21 40.1273 114.249C39.748 115.737 40.8196 116.775 42.3151 116.4C42.4528 116.365 42.5917 116.332 42.7309 116.299C43.2684 116.172 43.81 116.044 44.3019 115.814C46.9089 114.599 49.3936 114.712 51.8118 116.307C53.1253 117.172 54.4805 117.175 55.7911 116.291C58.1117 114.726 60.4095 114.676 62.7519 116.262C64.1175 117.187 65.5419 117.176 66.9161 116.25C69.2139 114.701 71.4823 114.705 73.783 116.257C75.1505 117.18 76.5645 117.159 77.9529 116.263C80.2659 114.77 82.6547 114.548 85.1688 115.752C85.6243 115.97 86.124 116.101 86.621 116.232C86.7634 116.269 86.9056 116.306 87.0465 116.346C88.8635 116.853 89.9105 115.831 89.4382 114.011C89.3281 113.586 89.227 113.158 89.1259 112.73C88.8762 111.672 88.6263 110.614 88.2395 109.609C87.4467 107.549 87.4495 105.582 88.4311 103.626C90.0262 100.446 89.9285 97.3094 88.4576 94.0936C87.8128 92.6825 87.2504 91.1936 88.0356 89.5331C88.3875 88.7886 87.8497 88.0517 87.0778 87.6819C86.3248 87.3215 85.496 87.4619 85.1346 88.1409L85.0591 88.2827C84.398 89.522 83.7173 90.7983 84.2745 92.343C84.9535 94.2283 85.569 96.1392 86.1361 98.0615C86.2897 98.5812 86.2964 99.2194 86.1484 99.7401C85.8904 100.648 85.6009 101.546 85.3114 102.445L85.3114 102.445L85.3113 102.445L85.3113 102.445L85.3113 102.445L85.3112 102.445L85.3112 102.445C84.9857 103.456 84.6603 104.466 84.3798 105.488C84.1986 106.15 84.2148 106.919 84.3447 107.601C84.5195 108.518 84.7673 109.421 85.015 110.325L85.015 110.325C85.118 110.7 85.2209 111.076 85.3186 111.452L85.0711 111.617C85.0029 111.533 84.9369 111.448 84.871 111.362C84.7277 111.176 84.5845 110.99 84.4196 110.825C75.6256 102.059 66.8288 93.2951 58.0301 84.5334C56.8532 83.3612 56.104 83.3603 54.9385 84.5182C53.7185 85.7299 52.5033 86.9465 51.2881 88.163L51.2874 88.1637L50.3741 89.0778C49.2574 90.1946 48.1414 91.3116 47.0254 92.4286L47.0252 92.4288L47.025 92.429L47.0248 92.4293L47.0246 92.4295C46.2805 93.1742 45.5364 93.919 44.7922 94.6636C44.8368 94.0348 44.9733 93.4687 45.1952 92.9376C45.6448 91.8631 45.6343 90.8389 45.2227 89.7294C44.5741 87.9806 44.0335 86.1892 43.5072 84.3987C43.3801 83.9672 43.3782 83.4343 43.5053 83.0037C44.0724 81.0805 44.6737 79.1658 45.3356 77.2729C45.6277 76.4365 45.6049 75.6901 45.3176 74.8613C44.6718 72.9997 44.0781 71.1182 43.5271 69.2262C43.3924 68.7644 43.3905 68.1973 43.5252 67.7364C43.7807 66.8632 44.0614 65.9975 44.342 65.1319C44.68 64.0891 45.0181 63.0464 45.3119 61.9913C45.4959 61.3313 45.5139 60.5584 45.3707 59.8869C45.1396 58.8025 44.8373 57.7339 44.5102 56.5772ZM45.5909 111.932C45.1193 112.075 44.6405 112.221 44.1549 112.333H44.154C44.2795 111.856 44.4072 111.384 44.534 110.915L44.5342 110.914C44.8538 109.733 45.1681 108.571 45.4295 107.397C45.5575 106.823 45.548 106.158 45.3925 105.592C45.178 104.809 44.922 104.037 44.666 103.265C44.4433 102.593 44.2205 101.921 44.025 101.241C43.9321 100.918 43.989 100.382 44.2023 100.164C47.7873 96.5008 51.399 92.8635 55.0106 89.2262L55.0119 89.2249L56.2681 87.9598C56.3126 87.9152 56.3885 87.9019 56.3525 87.918L56.9052 88.47L57.0691 88.6338L57.2097 88.7743C64.8389 96.3943 72.4448 103.991 80.0895 111.628C79.7785 111.766 79.4628 111.908 79.1431 112.052L79.1293 112.058L79.1281 112.059C78.1565 112.497 77.1479 112.951 76.1245 113.37C75.8921 113.464 75.5251 113.341 75.2586 113.228C74.8009 113.035 74.3483 112.828 73.8958 112.622L73.8956 112.621L73.8954 112.621L73.8952 112.621L73.895 112.621L73.8948 112.621L73.8945 112.621C73.0563 112.238 72.2186 111.855 71.3505 111.56C70.7322 111.351 69.9232 111.353 69.304 111.564C68.5672 111.814 67.8568 112.14 67.1458 112.467L67.1454 112.467C66.5973 112.719 66.0489 112.97 65.4879 113.188C65.0943 113.339 64.5414 113.343 64.1488 113.191C63.5657 112.966 62.9955 112.706 62.4257 112.446L62.4255 112.446C61.7044 112.117 60.9837 111.788 60.2378 111.53C59.6499 111.327 58.8741 111.34 58.2814 111.541C57.0087 111.974 55.7778 112.549 54.5724 113.151C53.9721 113.451 53.5075 113.391 52.929 113.126C52.5688 112.96 52.2087 112.776 51.8475 112.592C50.7923 112.053 49.7278 111.51 48.6263 111.401C47.6529 111.305 46.6397 111.613 45.5909 111.932ZM33.1615 83.7092V47.5006C33.1615 44.0828 35.1673 42.0704 38.5737 42.0694C46.6896 42.0675 54.8055 42.0666 62.9214 42.0713C64.4805 42.0723 65.3748 43.2691 64.7356 44.4848C64.325 45.2663 63.6194 45.4028 62.7981 45.4009C56.8906 45.3885 50.983 45.3896 45.0755 45.3908C43.3527 45.3911 41.6299 45.3915 39.9071 45.3915C36.6239 45.3915 36.4836 45.5347 36.4836 48.8662V119.411C36.4836 121.556 36.9435 122.007 39.1228 122.007C39.9075 122.007 40.6921 122.007 41.4767 122.007H41.4888H41.4889H41.4891H41.4892H41.4894C43.5793 122.006 45.6688 122.005 47.7584 122.009C49.0899 122.011 49.8049 122.6 49.8021 123.672C49.7992 124.743 49.0851 125.327 47.7489 125.329C44.627 125.333 41.506 125.335 38.384 125.329C35.2564 125.323 33.1615 123.242 33.1606 120.126C33.1577 111.022 33.1581 101.917 33.1584 92.8132L33.1587 83.7083L33.1615 83.7092ZM68.7744 125.331H68.7744H68.7745C70.3094 125.331 71.8443 125.331 73.3791 125.331C75.3448 125.331 77.3104 125.331 79.2759 125.332H79.2761H79.2763H79.2765H79.2767C83.2072 125.332 87.1374 125.333 91.0676 125.331C94.4029 125.329 96.4381 123.296 96.4381 119.959C96.4393 113.878 96.4389 107.797 96.4385 101.715V101.715V101.715V101.715V101.715C96.4383 98.6747 96.4381 95.6344 96.4381 92.5941L96.4383 92.5273L96.4393 92.4355C96.4407 92.3146 96.4421 92.1936 96.4362 92.0735C96.3859 91.0218 95.7202 90.3523 94.7462 90.3674C93.8187 90.3826 93.172 91.0379 93.1189 92.0289C93.1082 92.2227 93.1106 92.4169 93.113 92.6112V92.6113V92.6113V92.6114V92.6115L93.113 92.6123C93.114 92.6954 93.1151 92.7785 93.1151 92.8616C93.1151 95.4198 93.1152 97.978 93.1154 100.536V100.566V100.566V100.567V100.567C93.1158 106.946 93.1161 113.326 93.1141 119.706C93.1132 121.442 92.5461 122.001 90.8049 122.008C90.227 122.01 89.6487 122.009 89.0705 122.009C88.7815 122.008 88.4925 122.008 88.2036 122.008H55.7409C55.6663 122.008 55.5916 122.008 55.5169 122.007C55.3488 122.006 55.1807 122.006 55.0126 122.009C53.8528 122.033 53.1624 122.639 53.1491 123.644C53.1358 124.659 53.8224 125.324 54.9633 125.326C59.5674 125.333 64.1709 125.332 68.7743 125.331H68.7744ZM78.1203 57.8774V57.8793V57.8807V57.8821V57.8835C78.121 59.7766 78.1218 61.5634 78.1177 63.3501C78.1149 64.6674 77.5061 65.3891 76.4306 65.3729C75.3941 65.3578 74.8004 64.6541 74.7985 63.4013C74.7965 61.85 74.7972 60.2984 74.7979 58.7469C74.7991 56.0665 74.8004 53.386 74.7872 50.7059C74.7824 49.8107 75.047 49.1089 75.9195 48.8149C76.7853 48.5238 77.4473 48.8955 77.9802 49.6125C79.3826 51.4993 80.7958 53.3783 82.2091 55.2577C82.7131 55.9278 83.217 56.5979 83.7205 57.2684C83.9087 57.5189 84.099 57.7686 84.3258 58.0663L84.326 58.0666L84.3266 58.0674L84.3267 58.0675C84.4447 58.2224 84.5727 58.3903 84.7154 58.5781C84.7273 58.4084 84.7395 58.2628 84.7505 58.1328L84.7506 58.1314L84.7507 58.1306L84.7507 58.1302L84.7507 58.1301C84.771 57.8889 84.7868 57.7017 84.7874 57.514C84.7892 56.624 84.7886 55.7342 84.7879 54.8443V54.8443V54.8443V54.8442C84.7868 53.4102 84.7857 51.9762 84.795 50.5418C84.8026 49.401 85.4636 48.7153 86.4802 48.7314C87.4456 48.7466 88.1038 49.4237 88.1076 50.4963C88.1151 52.9658 88.1147 55.435 88.1143 57.9042V57.9078C88.114 59.8078 88.1138 61.7078 88.1171 63.6081C88.119 64.4379 87.7529 65.0296 86.9866 65.2885C86.1682 65.5645 85.5034 65.2534 84.9913 64.5697C83.0747 62.0089 81.1532 59.4514 79.2313 56.8933L78.7493 56.2518C78.661 56.1344 78.5682 56.0203 78.4294 55.8497C78.3462 55.7475 78.2466 55.625 78.1215 55.4694L78.1196 55.4704C78.1196 56.2945 78.12 57.093 78.1203 57.8735V57.8755V57.8774ZM63.1302 72.0464C63.133 68.3308 60.1913 65.3852 56.4785 65.3852V65.3843C52.762 65.3843 49.8221 68.3184 49.8164 72.0359C49.8098 75.7487 52.7553 78.699 56.4671 78.699C60.1856 78.699 63.1273 75.761 63.1302 72.0464ZM56.5051 68.7149C58.2737 68.7291 59.83 70.3157 59.7996 72.0739C59.7693 73.8606 58.2111 75.3874 56.4406 75.3656C54.6634 75.3438 53.1233 73.7743 53.1479 72.0094C53.1726 70.2265 54.7269 68.7006 56.5051 68.7149ZM94.8124 52.0536V55.3927C95.2916 55.3927 95.7674 55.3923 96.2407 55.3919C97.2981 55.3911 98.3436 55.3903 99.3891 55.3936C100.721 55.3984 101.436 55.9854 101.432 57.0589C101.428 58.1296 100.714 58.71 99.3777 58.7147C98.3574 58.718 97.337 58.7172 96.2704 58.7164H96.2701H96.2687C95.7814 58.716 95.2845 58.7157 94.7735 58.7157C94.7735 59.2022 94.7739 59.6833 94.7743 60.1605C94.7751 61.222 94.7758 62.2648 94.7726 63.3075C94.7688 64.6551 94.1998 65.3635 93.1291 65.374C92.0556 65.3844 91.4534 64.6656 91.4524 63.3426C91.4486 59.1462 91.4477 54.9498 91.4524 50.7524C91.4543 49.2967 92.0091 48.7372 93.4506 48.7315C95.462 48.7239 97.4734 48.7239 99.4858 48.7315C100.724 48.7363 101.431 49.3479 101.432 50.3883C101.433 51.4277 100.724 52.0431 99.4887 52.0498C98.4368 52.0557 97.3845 52.0543 96.2963 52.0529H96.2954C95.8093 52.0523 95.316 52.0517 94.8124 52.0517V52.0536ZM107.466 52.0548C107.667 52.0514 107.878 52.0479 108.105 52.0479H108.106V53.203V63.0885C108.106 64.6305 108.627 65.3569 109.74 65.3731C110.89 65.3901 111.429 64.6476 111.429 63.0383V55.3377V52.0498C111.638 52.0498 111.836 52.0526 112.027 52.0553C112.433 52.0611 112.806 52.0664 113.176 52.0432C114.141 51.9825 114.782 51.2703 114.755 50.3371C114.73 49.4514 114.098 48.7572 113.173 48.7439C110.883 48.7126 108.593 48.7088 106.305 48.7477C105.394 48.7638 104.777 49.4969 104.777 50.3902C104.776 51.2807 105.393 51.973 106.304 52.0403C106.674 52.0679 107.048 52.0617 107.466 52.0548Z" fill="#FFB900"/>
<g opacity="0.2" filter="url(#filter0_f_114_900)">
<rect x="12.75" y="10" width="115" height="115" rx="57.5" fill="url(#paint0_linear_114_900)"/>
</g>
<g opacity="0.5">
<path d="M11.5 37.2926C11.5 35.4742 12.9742 34 14.7926 34V34C16.6111 34 18.0853 35.4742 18.0853 37.2926V37.3685C18.0853 39.187 16.6111 40.6612 14.7926 40.6612V40.6612C12.9742 40.6612 11.5 39.187 11.5 37.3685V37.2926Z" fill="#FFB900"/>
<path d="M115.793 117.585C113.974 117.585 112.5 116.111 112.5 114.293V114.293C112.5 112.474 113.974 111 115.793 111H115.869C117.687 111 119.161 112.474 119.161 114.293V114.293C119.161 116.111 117.687 117.585 115.869 117.585H115.793Z" fill="#FFB900"/>
<path d="M132.5 22.5097C132.465 25.0169 130.415 27.0436 127.956 26.9993C125.445 26.9541 123.463 24.8748 123.501 22.3256C123.536 19.9424 125.618 17.9716 128.069 18.0003C130.518 18.0291 132.533 20.0788 132.5 22.5088V22.5097ZM129.848 22.4825C129.845 21.4786 129.016 20.6374 128.034 20.6423C127.017 20.6473 126.137 21.5181 126.133 22.5212C126.131 23.5226 126.985 24.3458 128.018 24.3375C129.057 24.3293 129.852 23.5242 129.848 22.4825Z" fill="#FFB900"/>
<path d="M130.781 35.6672C130.772 36.5982 130.049 37.3001 129.112 37.2898C128.211 37.2795 127.5 36.5612 127.5 35.659C127.5 34.7208 128.262 33.9779 129.203 34.0005C130.088 34.0211 130.79 34.763 130.781 35.6683V35.6672Z" fill="#FFB900"/>
<path d="M124.781 108.667C124.772 109.598 124.049 110.3 123.112 110.29C122.211 110.28 121.5 109.561 121.5 108.659C121.5 107.721 122.262 106.978 123.203 107.001C124.088 107.021 124.79 107.763 124.781 108.668V108.667Z" fill="#FFB900"/>
<path d="M12.7811 46.6672C12.7718 47.5982 12.0494 48.3001 11.1123 48.2898C10.2111 48.2795 9.5 47.5612 9.5 46.659C9.5 45.7208 10.2625 44.9779 11.2027 45.0005C12.0885 45.0211 12.7903 45.763 12.7811 46.6683V46.6672Z" fill="#FFB900"/>
<path fill-rule="evenodd" clip-rule="evenodd" d="M14.3976 100.744C14.3976 100.91 14.398 101.075 14.3984 101.241C14.3993 101.627 14.4002 102.014 14.3962 102.4C14.3899 103.049 13.8864 103.556 13.2643 103.551C12.6408 103.546 12.1466 103.04 12.1437 102.388C12.1388 101.307 12.1388 100.226 12.1444 99.1453C12.148 98.4936 12.6458 97.9972 13.2756 98C13.9012 98.0028 14.3906 98.5049 14.3962 99.158C14.3996 99.5199 14.3987 99.8814 14.3978 100.243C14.3974 100.41 14.3969 100.577 14.3969 100.744H14.3976ZM16.7219 105.909C16.8919 105.908 17.062 105.908 17.2322 105.908L17.2315 105.906H18.0428C18.1369 105.906 18.2311 105.906 18.3252 105.907C18.5135 105.908 18.7016 105.909 18.8894 105.904C19.5616 105.888 20.0397 105.42 20.0411 104.784C20.0425 104.135 19.5503 103.647 18.8661 103.643C17.773 103.636 16.6793 103.637 15.5862 103.643C14.8921 103.647 14.4035 104.121 14.4007 104.772C14.3978 105.425 14.8815 105.897 15.5742 105.906C15.9569 105.911 16.3393 105.91 16.7218 105.909H16.7219ZM8.81946 105.908H8.81954H8.81962C8.991 105.908 9.16235 105.907 9.33364 105.907L9.33293 105.908C9.49755 105.908 9.66217 105.908 9.82679 105.909C10.203 105.91 10.5793 105.911 10.9556 105.906C11.6532 105.898 12.1404 105.432 12.1404 104.784C12.1404 104.135 11.6497 103.649 10.964 103.644C9.87099 103.636 8.77722 103.637 7.68416 103.644C6.99147 103.648 6.50284 104.124 6.50001 104.774C6.49719 105.426 6.98017 105.896 7.67639 105.906C8.05723 105.911 8.43841 105.91 8.81946 105.908ZM14.3997 108.884C14.3993 108.722 14.399 108.56 14.399 108.398C14.399 108.234 14.3994 108.069 14.3999 107.905C14.4009 107.529 14.402 107.153 14.3976 106.777C14.3898 106.13 13.8842 105.624 13.2614 105.63C12.6337 105.636 12.1472 106.138 12.1451 106.794C12.1415 107.863 12.1415 108.932 12.1451 110.001C12.1472 110.677 12.6415 111.185 13.2798 111.179C13.9082 111.172 14.3912 110.676 14.3976 110.019C14.4015 109.641 14.4006 109.263 14.3997 108.884Z" fill="#FFB900"/>
</g>
</g>
<defs>
<filter id="filter0_f_114_900" x="2.75" y="0" width="135" height="135" filterUnits="userSpaceOnUse" color-interpolation-filters="sRGB">
<feFlood flood-opacity="0" result="BackgroundImageFix"/>
<feBlend mode="normal" in="SourceGraphic" in2="BackgroundImageFix" result="shape"/>
<feGaussianBlur stdDeviation="5" result="effect1_foregroundBlur_114_900"/>
</filter>
<linearGradient id="paint0_linear_114_900" x1="70.25" y1="10" x2="70.25" y2="125" gradientUnits="userSpaceOnUse">
<stop stop-color="#FFB900"/>
<stop offset="1" stop-color="#FFB900" stop-opacity="0"/>
</linearGradient>
<clipPath id="clip0_114_900">
<rect width="140" height="125" fill="white" transform="translate(0.75)"/>
</clipPath>
</defs>
</svg>
