<svg width="141" height="125" viewBox="0 0 141 125" fill="none" xmlns="http://www.w3.org/2000/svg">
<g clip-path="url(#clip0_114_923)">
<path fill-rule="evenodd" clip-rule="evenodd" d="M57.2323 27H115.998C118.537 28.0146 119.298 29.9191 119.289 32.585C119.233 46.245 119.239 59.905 119.245 73.5642V73.569V73.5693C119.247 78.2792 119.249 82.989 119.249 87.6987C119.249 90.5295 117.505 92.2825 114.663 92.2902C112.229 92.2981 109.795 92.296 107.361 92.294C106.254 92.293 105.148 92.2921 104.041 92.2921H102.942V93.4563C102.942 94.5159 102.941 95.5756 102.939 96.6352V96.6385C102.936 99.0224 102.933 101.406 102.946 103.79C102.969 107.726 100.035 109.189 96.4808 108.602C95.7367 108.479 95.3224 107.902 95.3646 107.145C95.4068 106.393 95.8632 105.906 96.6227 105.8C96.9733 105.751 97.3313 105.753 97.6888 105.754H97.6889C97.8106 105.755 97.9322 105.756 98.0535 105.754C99.6032 105.733 99.9906 105.363 99.9945 103.832C100.002 100.292 99.9983 96.7513 99.9945 93.2108C99.9945 93.0219 99.9756 92.8329 99.9563 92.6397C99.9474 92.5504 99.9384 92.4603 99.9312 92.3688H96.9987C96.9987 93.3137 96.9991 94.25 96.9995 95.1805C97.0004 97.0246 97.0012 98.8462 96.9987 100.668C96.9948 102.246 96.5057 102.745 94.9503 102.751C93.7334 102.755 92.5164 102.754 91.2995 102.753C90.539 102.752 89.7786 102.752 89.0181 102.752H86.6227V105.758C86.9779 105.758 87.3263 105.755 87.6701 105.753H87.6713C88.4425 105.747 89.1896 105.742 89.9349 105.766C91.0205 105.802 91.6016 106.422 91.5153 107.369C91.4405 108.19 90.8536 108.669 89.8237 108.69C89.0765 108.705 88.3283 108.702 87.5569 108.699H87.5554C87.2244 108.698 86.8892 108.696 86.5479 108.696V109.983C86.5467 111.056 86.5486 112.129 86.5505 113.202V113.204C86.5549 115.767 86.5594 118.329 86.5229 120.89C86.4903 123.188 84.6242 124.993 82.3322 124.993C63.3869 125.002 44.4416 125.002 25.4963 124.993C23.6973 124.993 22.4353 124.07 21.6317 122.486C21.507 122.241 21.3785 121.995 21.25 121.75V62.9842C21.8062 61.6608 22.5408 60.4084 23.9907 60.0191C24.9385 59.7653 25.9614 59.7531 26.9651 59.741L26.967 59.741C27.1082 59.7393 27.2491 59.7376 27.3893 59.7352C28.2083 59.7218 28.6686 60.2397 28.728 61.0586C28.7855 61.8469 28.2581 62.476 27.4545 62.5719C27.1783 62.6055 26.897 62.6002 26.6165 62.5949H26.6164C26.5133 62.593 26.4102 62.591 26.3076 62.591C24.5086 62.593 24.1173 62.9785 24.1173 64.766V119.887C24.1173 121.73 24.522 122.135 26.3536 122.135H81.4749C83.2663 122.135 83.6652 121.736 83.6652 119.954V64.7391C83.6652 62.9497 83.297 62.591 81.4653 62.591H34.4799C33.2428 62.591 32.5389 62.0291 32.5696 61.0931C32.5984 60.1975 33.2582 59.718 34.4799 59.7122C35.148 59.7097 35.8161 59.7105 36.5009 59.7114H36.5019C36.8508 59.7118 37.2041 59.7122 37.5639 59.7122V58.5212C37.5639 57.3731 37.5635 56.2249 37.5631 55.0767C37.5622 52.7801 37.5614 50.4832 37.5639 48.1855C37.5697 45.0995 39.3495 43.3139 42.4335 43.3082C44.4206 43.3038 46.4076 43.3044 48.3947 43.305C49.8848 43.3055 51.375 43.306 52.8652 43.3043C53.1011 43.3043 53.338 43.2903 53.602 43.2746C53.7157 43.2679 53.8344 43.2608 53.9603 43.2545V42.1344C53.9603 40.6927 53.9609 39.2507 53.9615 37.8087V37.8085C53.9624 35.6459 53.9634 33.4831 53.9622 31.3211C53.9622 29.6793 54.7064 28.4538 56.07 27.5907C56.3191 27.4318 56.5919 27.3039 56.8657 27.1756C56.9884 27.1181 57.1113 27.0605 57.2323 27ZM79.1792 53.7321C79.0177 53.721 78.8788 53.7089 78.7543 53.6981L78.7543 53.6981C78.5343 53.679 78.3596 53.6638 78.1857 53.665C77.4588 53.6707 76.776 53.6036 76.3924 52.8499C76.0031 52.0846 76.3924 51.5112 76.8278 50.9339C77.9525 49.4356 79.0756 47.9363 80.1987 46.4371L80.2015 46.4335L80.2051 46.4286C81.8703 44.2058 83.5354 41.9831 85.2053 39.7638C86.1125 38.5574 87.083 38.5613 87.9921 39.76C88.7101 40.708 89.4213 41.6611 90.1325 42.6143L90.1339 42.6161C90.4899 43.0932 90.8459 43.5702 91.2027 44.0466L92.1867 45.3598L92.1879 45.3613C93.5989 47.2447 95.0105 49.1289 96.4309 51.0067C96.8586 51.5725 97.1425 52.1537 96.803 52.8556C96.4578 53.571 95.8038 53.6707 95.1037 53.6669C94.894 53.6656 94.6843 53.6779 94.4341 53.6925L94.434 53.6925L94.4338 53.6926C94.3202 53.6992 94.1983 53.7064 94.0642 53.7129C94.1362 53.8227 94.1996 53.9223 94.2582 54.0144C94.3777 54.2021 94.4771 54.3583 94.5878 54.505C94.9879 55.0399 95.3916 55.5721 95.7952 56.1042L95.7963 56.1057C96.7992 57.4278 97.8018 58.7495 98.7478 60.1111C99.0413 60.5331 99.1755 61.3386 98.9645 61.7567C98.7697 62.1412 98.146 62.3538 97.6318 62.5291C97.5893 62.5436 97.5476 62.5578 97.5069 62.5719C97.2773 62.6514 97.0142 62.6348 96.7015 62.6151L96.7014 62.6151C96.5467 62.6054 96.3798 62.5949 96.1989 62.5949C96.7332 63.3077 97.2515 64.0002 97.7594 64.6789L97.7668 64.6887L97.767 64.689C98.8116 66.0847 99.8123 67.4217 100.817 68.7553C101.251 69.3306 101.657 69.8983 101.272 70.6674C100.877 71.4557 100.159 71.5382 99.4018 71.5382H94.0431H92.5567V77.6219C92.6247 77.6047 92.6845 77.592 92.7384 77.5805C92.8352 77.5599 92.913 77.5433 92.9844 77.5125C96.7589 75.8631 100.361 76.2505 103.832 78.389C105.304 79.2961 106.788 80.1808 108.273 81.0654L108.275 81.0669C108.733 81.3395 109.19 81.6121 109.647 81.8854C109.798 81.9748 109.957 82.0488 110.142 82.1347C110.234 82.1779 110.334 82.2241 110.441 82.2767C110.441 81.8214 110.441 81.3802 110.44 80.9485C110.438 80.0071 110.437 79.1113 110.443 78.2145C110.453 77.1424 110.957 76.544 111.836 76.5248C112.749 76.5037 113.305 77.1385 113.311 78.2394C113.317 79.9618 113.315 81.6841 113.313 83.4065L113.313 84.2694C113.313 85.9687 112.937 86.3484 111.247 86.3484H87.7044H86.6073V89.3653C86.6876 89.3717 86.7616 89.3788 86.8314 89.3856L86.8318 89.3856L86.8319 89.3856C86.9738 89.3993 87.0984 89.4114 87.223 89.4114L91.7971 89.4124H91.811C99.4373 89.4143 107.063 89.4162 114.69 89.4114C115.9 89.4114 116.383 88.8571 116.383 87.5069C116.385 68.9413 116.385 50.3757 116.383 31.8083C116.383 30.3698 115.875 29.8711 114.412 29.8711C102.055 29.8699 89.6994 29.8703 77.3434 29.8707C71.1653 29.8709 64.9872 29.8711 58.8088 29.8711C57.286 29.8711 56.8372 30.3334 56.8372 31.8831V58.6785C56.8372 58.8929 56.8491 59.1074 56.8615 59.3313V59.3314L56.8615 59.3317C56.8671 59.4321 56.8727 59.5343 56.8775 59.6393H59.8963V58.431V34.9843C59.8963 33.3388 60.2876 32.9417 61.9063 32.9417H111.287C112.896 32.9417 113.307 33.356 113.307 34.9843V70.4891C113.307 72.0042 112.822 72.7369 111.836 72.7139C110.879 72.6909 110.436 72.0004 110.436 70.5255V37.0308V35.8839H62.8384V59.7161H63.9335C64.8095 59.7161 65.6856 59.7101 66.5617 59.7042C68.7165 59.6896 70.8715 59.675 73.0245 59.7487C74.2884 59.7928 75.0729 59.4015 75.7614 58.3639C76.4821 57.2768 77.276 56.2386 78.1025 55.1579L78.1025 55.1578C78.4571 54.6941 78.8177 54.2225 79.1811 53.7359L79.1792 53.7321ZM96.783 68.2674C96.8332 68.3445 96.8895 68.431 96.9558 68.5309H86.5421C86.5421 68.0582 86.543 67.5906 86.5438 67.1266C86.5455 66.2086 86.5472 65.3041 86.5421 64.3996C86.5248 61.4153 84.8332 59.7199 81.8662 59.7084C81.1548 59.7059 80.4442 59.7067 79.6904 59.7075H79.6888C79.295 59.7079 78.8894 59.7084 78.4657 59.7084C78.5238 59.607 78.5729 59.5151 78.618 59.4308C78.7008 59.2758 78.77 59.1462 78.857 59.0294C79.6052 58.0249 80.3565 57.0228 81.1078 56.0208L81.1114 56.0159C81.6972 55.2346 82.283 54.4532 82.8673 53.6707C82.8994 53.6278 82.9319 53.5849 82.9644 53.542C83.3959 52.9717 83.8309 52.397 83.4331 51.6032C83.0189 50.7747 82.2651 50.7171 81.4692 50.7478C81.3316 50.7528 81.1941 50.7417 81.0054 50.7265C80.902 50.7182 80.7832 50.7087 80.6406 50.6999C81.4936 49.5612 82.3312 48.4435 83.1649 47.3308L83.1663 47.329L83.1855 47.3034C84.3208 45.7883 85.4491 44.2824 86.5996 42.7462C88.0241 44.6468 89.4155 46.5018 90.8437 48.4058L90.8464 48.4094L92.6047 50.7536C92.4039 50.7536 92.2245 50.7422 92.0625 50.7319C91.7493 50.7121 91.5007 50.6963 91.2871 50.7747C91.2436 50.7906 91.199 50.8067 91.1536 50.823C90.6458 51.0062 90.0384 51.2253 89.8448 51.6109C89.6357 52.0252 89.77 52.8249 90.0596 53.2411C91.0676 54.6842 92.1304 56.0877 93.1934 57.4915L93.1937 57.4919C93.5929 58.019 93.992 58.5462 94.3883 59.0755C94.4604 59.1724 94.5236 59.2749 94.605 59.407L94.6051 59.4071L94.6054 59.4077C94.6497 59.4794 94.6992 59.5598 94.7585 59.6528C94.6262 59.6605 94.5048 59.6706 94.3906 59.6802C94.1655 59.699 93.9687 59.7154 93.7727 59.7065C93.0324 59.6758 92.3458 59.7678 91.9948 60.5293C91.6534 61.2734 92.0082 61.8699 92.4512 62.4549C93.6358 64.0188 94.8103 65.5914 95.9847 67.1639L95.9861 67.1656L96.523 67.8845C96.6059 67.9955 96.682 68.1124 96.783 68.2674ZM53.897 46.327C53.8194 46.3163 53.7502 46.3049 53.6869 46.2945C53.5578 46.2733 53.4527 46.256 53.3485 46.256C52.6027 46.2553 51.8567 46.2542 51.1108 46.2531H51.1103C48.1254 46.2488 45.1398 46.2445 42.1554 46.2599C40.9337 46.2656 40.5137 46.7202 40.5099 47.9802C40.4976 51.3129 40.503 54.644 40.5084 57.9764V57.9777L40.5099 58.8875C40.5099 59.0534 40.5317 59.2184 40.5542 59.3879C40.565 59.4692 40.5759 59.5515 40.5847 59.6355H43.5057V58.5135C43.5057 57.7163 43.5052 56.9191 43.5048 56.1219C43.504 54.5274 43.5031 52.933 43.5057 51.3385C43.5095 49.7562 43.9928 49.2595 45.5502 49.2537C46.7619 49.2486 47.9737 49.2503 49.1848 49.252H49.1864H49.1869C49.7923 49.2529 50.3977 49.2537 51.0028 49.2537H53.8989V46.327H53.897ZM53.8337 59.6585V52.2898H46.513V59.6585H53.8337ZM93.9894 99.7548V92.3592H86.615V99.7548H93.9894ZM92.5989 83.414H106.26C104.379 82.1271 102.48 80.9092 100.451 79.9694C98.4582 79.045 96.3159 79.1543 94.3404 80.1075C94.229 80.1612 94.1239 80.2115 94.0247 80.2589C93.1801 80.6631 92.7697 80.8594 92.5914 81.1835C92.4229 81.4897 92.4616 81.9099 92.5368 82.7271C92.5555 82.9301 92.5764 83.1577 92.597 83.414H92.5989ZM86.6246 71.59V83.4121H89.5437V71.59H86.6246ZM53.8836 65.6597H78.575C80.2148 65.6597 80.5984 66.0414 80.5984 67.6755V117.056C80.5984 118.667 80.188 119.064 78.552 119.064H29.2669C27.5811 119.064 27.1879 118.671 27.1879 116.985V67.7004C27.1879 66.0567 27.5792 65.6578 29.1941 65.6578H53.8855L53.8836 65.6597ZM77.6908 68.6095H30.1396V102.48C30.2295 102.411 30.3072 102.354 30.3763 102.303C30.5003 102.211 30.597 102.139 30.6881 102.06C36.4764 97.1023 42.2628 92.1425 48.0473 87.1827C49.1731 86.2161 49.7121 86.2103 50.8609 87.1942C51.9124 88.0946 52.9616 88.9972 54.011 89.8999L54.0118 89.9006L54.0126 89.9012C54.9209 90.6825 55.8293 91.464 56.7394 92.2441C57.6536 93.0273 58.5717 93.8076 59.4981 94.5948L59.5027 94.5987C59.8633 94.9051 60.2253 95.2127 60.5887 95.5219L60.7772 95.333L60.7946 95.3156C62.9543 93.1522 65.0512 91.0517 67.148 88.9549C68.5231 87.5778 69.018 87.574 70.3682 88.9242C71.2891 89.8443 72.2096 90.7651 73.1303 91.686L73.1502 91.7059L73.1614 91.717C74.3951 92.9511 75.629 94.1853 76.8642 95.4183C77.0219 95.5761 77.1885 95.724 77.3869 95.9002L77.387 95.9003C77.4804 95.9833 77.5809 96.0726 77.6908 96.1721V68.6095ZM77.5873 116.151C78.0629 114.659 77.4799 113.767 76.4077 112.873C73.1714 110.173 69.9771 107.424 66.7828 104.674L66.7823 104.674L66.7814 104.673C65.5522 103.615 64.3231 102.557 63.0916 101.502C60.0662 98.9098 57.0401 96.3176 54.0159 93.7271L49.5107 89.8678C49.4717 89.887 49.4348 89.9028 49.4004 89.9175C49.3316 89.9469 49.2729 89.9721 49.2268 90.0117L47.454 91.5293L47.4539 91.5294C41.7939 96.3744 36.1332 101.22 30.4944 106.088C30.2355 106.312 30.0878 106.792 30.0802 107.158C30.0502 108.605 30.0542 110.053 30.0582 111.502V111.502L30.0582 111.503C30.0596 112.001 30.061 112.498 30.061 112.996V116.153H77.5892L77.5873 116.151ZM70.3962 103.941L70.429 103.969L70.5581 104.079C72.9186 106.102 75.3025 108.145 77.7215 110.217C77.7215 109.483 77.7222 108.761 77.7228 108.049C77.7251 105.549 77.7273 103.171 77.7004 100.794C77.6966 100.501 77.4607 100.156 77.2363 99.9255C76.2841 98.9472 75.3162 97.9826 74.3487 97.0185L74.3485 97.0183L74.3483 97.0181C73.9616 96.6328 73.575 96.2475 73.1895 95.8614C72.4483 95.1193 71.7077 94.3767 70.9734 93.6404C70.2634 92.9286 69.5594 92.2226 68.8665 91.5288L62.8902 97.5108H62.8921C65.3763 99.6391 67.8729 101.778 70.3962 103.941ZM61.3865 71.6053C57.2342 71.5976 53.9641 74.8389 53.9584 78.9682H53.9603C53.9545 83.0592 57.2016 86.3331 61.2772 86.3465C65.4161 86.3599 68.713 83.0975 68.713 78.9836C68.713 74.9022 65.4487 71.613 61.3865 71.6053ZM61.3367 83.4735C58.874 83.4773 56.8429 81.45 56.841 78.9836H56.8391C56.8372 76.519 58.8683 74.4745 61.3213 74.4707C63.7609 74.4669 65.8342 76.5305 65.84 78.9682C65.8457 81.4059 63.782 83.4696 61.3367 83.4735Z" fill="#FFB900"/>
<g opacity="0.2" filter="url(#filter0_f_114_923)">
<path d="M12.25 67.5C12.25 35.7436 37.9936 10 69.75 10C101.506 10 127.25 35.7436 127.25 67.5C127.25 99.2564 101.506 125 69.75 125C37.9936 125 12.25 99.2564 12.25 67.5Z" fill="url(#paint0_linear_114_923)"/>
</g>
<g opacity="0.5">
<path d="M118.25 113.51C118.215 116.017 116.165 118.044 113.706 117.999C111.195 117.954 109.213 115.875 109.251 113.326C109.286 110.942 111.368 108.972 113.819 109C116.268 109.029 118.283 111.079 118.25 113.509V113.51ZM115.598 113.483C115.595 112.479 114.766 111.637 113.784 111.642C112.767 111.647 111.887 112.518 111.883 113.521C111.881 114.523 112.735 115.346 113.768 115.338C114.807 115.329 115.602 114.524 115.598 113.483Z" fill="#FFB900"/>
<path d="M130.281 35.6672C130.272 36.5982 129.549 37.3001 128.612 37.2898C127.711 37.2795 127 36.5612 127 35.659C127 34.7208 127.762 33.9779 128.703 34.0005C129.588 34.0211 130.29 34.763 130.281 35.6683V35.6672Z" fill="#FFB900"/>
<path d="M14.5311 113.667C14.5218 114.598 13.7994 115.3 12.8623 115.29C11.9611 115.28 11.25 114.561 11.25 113.659C11.25 112.721 12.0125 111.978 12.9527 112.001C13.8385 112.021 14.5403 112.763 14.5311 113.668V113.667Z" fill="#FFB900"/>
<path d="M124.531 107.667C124.522 108.598 123.799 109.3 122.862 109.29C121.961 109.28 121.25 108.561 121.25 107.659C121.25 106.721 122.012 105.978 122.953 106.001C123.838 106.021 124.54 106.763 124.531 107.668V107.667Z" fill="#FFB900"/>
<path d="M23.5311 39.6672C23.5218 40.5982 22.7994 41.3001 21.8623 41.2898C20.9611 41.2795 20.25 40.5612 20.25 39.659C20.25 38.7208 21.0125 37.9779 21.9527 38.0005C22.8385 38.0211 23.5403 38.763 23.5311 39.6683V39.6672Z" fill="#FFB900"/>
<path fill-rule="evenodd" clip-rule="evenodd" d="M32.1476 25.744C32.1476 25.9096 32.148 26.0753 32.1484 26.2409C32.1493 26.6275 32.1502 27.014 32.1462 27.4005C32.1399 28.0487 31.6364 28.5557 31.0143 28.5508C30.3908 28.5458 29.8966 28.0395 29.8937 27.3878C29.8888 26.3067 29.8888 25.2264 29.8944 24.1453C29.898 23.4936 30.3958 22.9972 31.0256 23C31.6512 23.0028 32.1406 23.5049 32.1462 24.158C32.1496 24.5199 32.1487 24.8814 32.1478 25.243L32.1478 25.2435C32.1474 25.4103 32.1469 25.5771 32.1469 25.744H32.1476ZM34.4719 30.9087C34.6419 30.9082 34.812 30.9076 34.9822 30.9076L34.9815 30.9062H35.7928C35.8869 30.906 35.9811 30.9065 36.0753 30.9069C36.2635 30.9079 36.4516 30.9088 36.6394 30.9041C37.3116 30.8879 37.7897 30.4204 37.7911 29.7842C37.7925 29.1353 37.3003 28.6474 36.6161 28.6431C35.523 28.6361 34.4293 28.6368 33.3362 28.6431C32.6421 28.6474 32.1535 29.1212 32.1507 29.7722C32.1478 30.4246 32.6315 30.897 33.3242 30.9062C33.7069 30.9111 34.0893 30.9099 34.4718 30.9087H34.4719ZM26.5695 30.9083H26.5695H26.5696C26.741 30.9076 26.9123 30.907 27.0836 30.907L27.0829 30.9077C27.2475 30.9077 27.4122 30.9082 27.5768 30.9087C27.953 30.9097 28.3293 30.9107 28.7056 30.9063C29.4032 30.8979 29.8904 30.4318 29.8904 29.7843C29.8904 29.1347 29.3997 28.6489 28.714 28.6439C27.621 28.6362 26.5272 28.6369 25.4342 28.6439C24.7415 28.6482 24.2528 29.1241 24.25 29.7744C24.2472 30.4262 24.7302 30.8957 25.4264 30.9056C25.8072 30.911 26.1884 30.9096 26.5695 30.9083H26.5695H26.5695ZM32.1497 33.8843C32.1493 33.7222 32.149 33.5601 32.149 33.3981C32.149 33.2337 32.1494 33.0693 32.1499 32.9048C32.1509 32.5288 32.152 32.1527 32.1476 31.7769C32.1398 31.1301 31.6342 30.6245 31.0114 30.6301C30.3837 30.6358 29.8972 31.1378 29.8951 31.7938C29.8915 32.8629 29.8915 33.9319 29.8951 35.001C29.8972 35.6767 30.3915 36.1851 31.0298 36.1788C31.6582 36.1724 32.1412 35.676 32.1476 35.0193C32.1515 34.6412 32.1506 34.2627 32.1497 33.8843Z" fill="#FFB900"/>
</g>
</g>
<defs>
<filter id="filter0_f_114_923" x="2.25" y="0" width="135" height="135" filterUnits="userSpaceOnUse" color-interpolation-filters="sRGB">
<feFlood flood-opacity="0" result="BackgroundImageFix"/>
<feBlend mode="normal" in="SourceGraphic" in2="BackgroundImageFix" result="shape"/>
<feGaussianBlur stdDeviation="5" result="effect1_foregroundBlur_114_923"/>
</filter>
<linearGradient id="paint0_linear_114_923" x1="69.75" y1="10" x2="69.75" y2="125" gradientUnits="userSpaceOnUse">
<stop stop-color="#FFB900"/>
<stop offset="1" stop-color="#FFB900" stop-opacity="0"/>
</linearGradient>
<clipPath id="clip0_114_923">
<rect width="140" height="125" fill="white" transform="translate(0.25)"/>
</clipPath>
</defs>
</svg>
