<svg width="141" height="125" viewBox="0 0 141 125" fill="none" xmlns="http://www.w3.org/2000/svg">
<g clip-path="url(#clip0_114_946)">
<g opacity="0.2" filter="url(#filter0_f_114_946)">
<rect x="12.75" y="10" width="115" height="115" rx="57.5" fill="url(#paint0_linear_114_946)"/>
</g>
<g opacity="0.5">
<path d="M122.75 87.5097C122.715 90.0169 120.665 92.0436 118.206 91.9993C115.695 91.9541 113.713 89.8748 113.751 87.3256C113.786 84.9424 115.868 82.9716 118.319 83.0003C120.768 83.0291 122.783 85.0788 122.75 87.5088V87.5097ZM120.098 87.4825C120.095 86.4786 119.266 85.6374 118.284 85.6423C117.267 85.6473 116.387 86.5181 116.383 87.5212C116.381 88.5226 117.235 89.3458 118.268 89.3375C119.307 89.3293 120.102 88.5242 120.098 87.4825Z" fill="#FFB900"/>
<path d="M99.0311 25.6672C99.0218 26.5982 98.2994 27.3001 97.3623 27.2898C96.4611 27.2795 95.75 26.5612 95.75 25.659C95.75 24.7208 96.5125 23.9779 97.4527 24.0005C98.3385 24.0211 99.0403 24.763 99.0311 25.6683V25.6672Z" fill="#FFB900"/>
<path d="M123.725 75.8159C124.532 76.2795 124.791 77.2529 124.323 78.0652C123.873 78.8461 122.899 79.1148 122.112 78.6733C121.294 78.2143 121.019 77.1858 121.499 76.3769C121.95 75.6144 122.94 75.3654 123.725 75.8164L123.725 75.8159Z" fill="#FFB900"/>
<path d="M37.0311 28.6672C37.0218 29.5982 36.2994 30.3001 35.3623 30.2898C34.4611 30.2795 33.75 29.5612 33.75 28.659C33.75 27.7208 34.5125 26.9779 35.4527 27.0005C36.3385 27.0211 37.0403 27.763 37.0311 28.6683V28.6672Z" fill="#FFB900"/>
<path d="M26.0311 58.6672C26.0218 59.5982 25.2994 60.3001 24.3623 60.2898C23.4611 60.2795 22.75 59.5612 22.75 58.659C22.75 57.7208 23.5125 56.9779 24.4527 57.0005C25.3385 57.0211 26.0403 57.763 26.0311 58.6683V58.6672Z" fill="#FFB900"/>
<path d="M31.0311 80.6672C31.0218 81.5982 30.2994 82.3001 29.3623 82.2898C28.4611 82.2795 27.75 81.5612 27.75 80.659C27.75 79.7208 28.5125 78.9779 29.4527 79.0005C30.3385 79.0211 31.0403 79.763 31.0311 80.6683V80.6672Z" fill="#FFB900"/>
<path fill-rule="evenodd" clip-rule="evenodd" d="M20.6476 67.744C20.6476 67.9096 20.648 68.0753 20.6484 68.2409C20.6493 68.6275 20.6502 69.014 20.6462 69.4005C20.6399 70.0487 20.1364 70.5557 19.5143 70.5508C18.8908 70.5458 18.3966 70.0395 18.3937 69.3878C18.3888 68.3067 18.3888 67.2264 18.3944 66.1453C18.398 65.4936 18.8958 64.9972 19.5256 65C20.1512 65.0028 20.6406 65.5049 20.6462 66.158C20.6496 66.5199 20.6487 66.8814 20.6478 67.243L20.6478 67.2435C20.6474 67.4103 20.6469 67.5771 20.6469 67.744H20.6476ZM22.9719 72.9087C23.1419 72.9082 23.312 72.9076 23.4822 72.9076L23.4815 72.9062H24.2928C24.3869 72.906 24.4811 72.9065 24.5753 72.9069C24.7635 72.9079 24.9516 72.9088 25.1394 72.9041C25.8116 72.8879 26.2897 72.4204 26.2911 71.7842C26.2925 71.1353 25.8003 70.6474 25.1161 70.6431C24.023 70.6361 22.9293 70.6368 21.8362 70.6431C21.1421 70.6474 20.6535 71.1212 20.6507 71.7722C20.6478 72.4246 21.1315 72.897 21.8242 72.9062C22.2069 72.9111 22.5893 72.9099 22.9718 72.9087H22.9719ZM15.0695 72.9083H15.0695H15.0696C15.241 72.9076 15.4123 72.907 15.5836 72.907L15.5829 72.9077C15.7475 72.9077 15.9122 72.9082 16.0768 72.9087C16.453 72.9097 16.8293 72.9107 17.2056 72.9063C17.9032 72.8979 18.3904 72.4318 18.3904 71.7843C18.3904 71.1347 17.8997 70.6489 17.214 70.6439C16.121 70.6362 15.0272 70.6369 13.9342 70.6439C13.2415 70.6482 12.7528 71.1241 12.75 71.7744C12.7472 72.4262 13.2302 72.8957 13.9264 72.9056C14.3072 72.911 14.6884 72.9096 15.0695 72.9083H15.0695H15.0695ZM20.6497 75.8843C20.6493 75.7222 20.649 75.5601 20.649 75.3981C20.649 75.2337 20.6494 75.0693 20.6499 74.9048C20.6509 74.5288 20.652 74.1527 20.6476 73.7769C20.6398 73.1301 20.1342 72.6245 19.5114 72.6301C18.8837 72.6358 18.3972 73.1378 18.3951 73.7938C18.3915 74.8629 18.3915 75.9319 18.3951 77.001C18.3972 77.6767 18.8915 78.1851 19.5298 78.1788C20.1582 78.1724 20.6412 77.676 20.6476 77.0193C20.6515 76.6412 20.6506 76.2627 20.6497 75.8843Z" fill="#FFB900"/>
<path fill-rule="evenodd" clip-rule="evenodd" d="M108.648 31.744C108.648 31.9096 108.648 32.0753 108.648 32.2409C108.649 32.6275 108.65 33.014 108.646 33.4005C108.64 34.0487 108.136 34.5557 107.514 34.5508C106.891 34.5458 106.397 34.0395 106.394 33.3878C106.389 32.3067 106.389 31.2264 106.394 30.1453C106.398 29.4936 106.896 28.9972 107.526 29C108.151 29.0028 108.641 29.5049 108.646 30.158C108.65 30.5199 108.649 30.8814 108.648 31.243L108.648 31.2435C108.647 31.4103 108.647 31.5771 108.647 31.744H108.648ZM110.972 36.9087C111.142 36.9082 111.312 36.9076 111.482 36.9076L111.481 36.9062H112.293C112.387 36.906 112.481 36.9065 112.575 36.9069C112.763 36.9079 112.952 36.9088 113.139 36.9041C113.812 36.8879 114.29 36.4204 114.291 35.7842C114.292 35.1353 113.8 34.6474 113.116 34.6431C112.023 34.6361 110.929 34.6368 109.836 34.6431C109.142 34.6474 108.653 35.1212 108.651 35.7722C108.648 36.4246 109.132 36.897 109.824 36.9062C110.207 36.9111 110.589 36.9099 110.972 36.9087H110.972ZM103.069 36.9083H103.07H103.07C103.241 36.9076 103.412 36.907 103.584 36.907L103.583 36.9077C103.748 36.9077 103.912 36.9082 104.077 36.9087C104.453 36.9097 104.829 36.9107 105.206 36.9063C105.903 36.8979 106.39 36.4318 106.39 35.7843C106.39 35.1347 105.9 34.6489 105.214 34.6439C104.121 34.6362 103.027 34.6369 101.934 34.6439C101.241 34.6482 100.753 35.1241 100.75 35.7744C100.747 36.4262 101.23 36.8957 101.926 36.9056C102.307 36.911 102.688 36.9096 103.069 36.9083H103.069H103.069ZM108.65 39.8843C108.649 39.7222 108.649 39.5601 108.649 39.3981C108.649 39.2337 108.649 39.0693 108.65 38.9048C108.651 38.5288 108.652 38.1527 108.648 37.7769C108.64 37.1301 108.134 36.6245 107.511 36.6301C106.884 36.6358 106.397 37.1378 106.395 37.7938C106.392 38.8629 106.392 39.9319 106.395 41.001C106.397 41.6767 106.891 42.1851 107.53 42.1788C108.158 42.1724 108.641 41.676 108.648 41.0193C108.652 40.6412 108.651 40.2627 108.65 39.8843Z" fill="#FFB900"/>
</g>
<path fill-rule="evenodd" clip-rule="evenodd" d="M33.4934 109.257C28.6227 108.284 22.7441 109.942 20.75 115.039V122.266C21.2705 123.57 22.1844 124.478 23.4858 125H118.042C120.116 124.151 120.975 122.609 120.79 120.384C120.698 119.253 120.701 118.102 120.79 116.969C120.981 114.493 119.825 112.705 117.964 111.302C114.964 109.041 111.569 108.63 107.954 109.268C106.295 109.562 104.622 109.832 102.944 109.955C101.238 110.08 100.017 109.264 99.4005 107.625C99.3028 107.365 99.1964 107.109 99.09 106.853C98.9723 106.569 98.8546 106.286 98.7488 105.998C97.6216 102.922 95.377 101.04 92.2421 100.435C90.8065 100.158 89.3041 100.188 87.8138 100.218C87.4473 100.225 87.0815 100.233 86.7177 100.235C85.3615 100.243 84.2794 99.7284 83.5044 98.6971C83.0812 98.1337 82.7489 97.5013 82.4172 96.8702C82.2719 96.5937 82.1267 96.3175 81.9741 96.0474C83.477 95.1825 83.7529 94.7872 83.385 93.1747C83.1533 92.1538 82.7926 91.1624 82.4309 90.1687C82.2733 89.7356 82.1155 89.3021 81.9682 88.8655C82.1112 88.7861 82.2753 88.7085 82.4491 88.6264C82.8747 88.4252 83.3578 88.1968 83.7275 87.8479C84.2794 87.3274 84.7334 87.347 85.3654 87.5583C87.6668 88.3293 89.7646 89.4565 91.7293 90.887C93.8682 92.4447 96.4983 91.2119 96.7586 88.6014C96.9406 86.7873 96.6784 85.0339 96.0639 83.3294C94.5571 79.1553 91.835 75.8207 88.7039 72.7816C88.2284 72.3198 88.0679 71.8854 88.1893 71.2415C89.5122 64.181 89.8057 57.0989 88.5161 49.9992C87.5376 44.6099 85.7666 39.516 82.8254 34.8644C82.1776 33.8409 81.3538 33.5807 80.5534 34.109C79.8117 34.6002 79.7276 35.4397 80.3127 36.4319C80.6257 36.9635 80.9343 37.4984 81.257 38.0578L81.2583 38.0601L81.2587 38.0608L81.259 38.0613C81.3633 38.2421 81.469 38.4254 81.5769 38.6119H59.9079C60.0944 38.3049 60.2696 38.0084 60.4396 37.7206L60.44 37.7199L60.4402 37.7196C60.7944 37.12 61.1262 36.5583 61.4911 36.019C63.5713 32.9427 65.9665 30.1952 69.3207 28.4164C70.3422 27.8763 71.303 27.8117 72.2482 28.4575C73.5065 29.3166 74.7374 30.2187 75.9585 31.1287C76.7785 31.7392 77.5476 31.7588 78.1366 31.1189C78.7374 30.4692 78.7374 29.5964 77.9526 28.9721C76.5574 27.8626 75.1327 26.7726 73.622 25.8332C71.759 24.6747 69.8217 24.7746 67.8823 25.8215C65.2894 27.2207 63.1349 29.1306 61.2738 31.3772C55.7671 38.0248 53.2779 45.8545 52.4207 54.3005C51.8415 60.0088 52.3033 65.6682 53.3405 71.2924C53.4501 71.8912 53.3209 72.3139 52.8571 72.7503C50.6223 74.8579 48.6459 77.1867 47.0921 79.85C45.595 82.4155 44.5676 85.1161 44.7144 88.161C44.7829 89.5779 45.2937 90.6933 46.6283 91.3019C47.9433 91.9007 49.0646 91.4604 50.1546 90.6424C52.0939 89.1845 54.2348 88.1023 56.5851 87.4683C56.8121 87.4076 57.1252 87.345 57.2974 87.4507C57.9006 87.8185 58.4844 88.2197 59.0119 88.5822C59.1946 88.7077 59.3705 88.8286 59.5381 88.9419C59.4002 89.3398 59.2523 89.7389 59.1036 90.1405L59.1035 90.1407L59.1034 90.1408C58.7541 91.0839 58.4 92.04 58.1584 93.024C57.8629 94.2216 57.8121 95.4917 59.4206 95.8909C58.495 99.1609 56.9569 100.294 53.6869 100.194C53.362 100.184 53.0352 100.167 52.7123 100.133C48.9061 99.7382 44.1626 101.552 42.6048 106.394C42.2076 107.628 41.6812 108.795 40.5873 109.658C39.9963 110.125 40.008 110.889 40.4933 111.509C41.0021 112.157 41.7458 112.38 42.3857 111.867C43.1313 111.27 43.826 110.544 44.3445 109.746C44.8392 108.984 45.1585 108.095 45.47 107.227L45.4701 107.227L45.5226 107.081C46.2741 104.989 47.7887 103.713 49.8944 103.331C51.3444 103.069 52.8708 103.126 54.3561 103.196C57.1624 103.329 59.3032 102.182 60.8042 99.9065C61.4715 98.8947 61.9001 97.7069 62.3149 96.5543C62.5047 96.0279 62.6985 95.8361 63.2503 95.8361C68.2639 95.8537 73.2795 95.8556 78.2931 95.8361C78.8646 95.8341 79.027 96.0689 79.2109 96.5778L79.2533 96.6948C79.6466 97.7812 80.0494 98.8938 80.6747 99.8478C82.1874 102.159 84.342 103.372 87.1893 103.186L87.4646 103.168C88.4785 103.102 89.5014 103.036 90.5063 103.126C93.0542 103.355 95.0111 104.505 95.9719 107.014C96.0988 107.345 96.2309 107.675 96.3629 108.004L96.3633 108.005C96.3886 108.068 96.4139 108.131 96.4392 108.194C96.4628 108.254 96.4865 108.313 96.5101 108.372C97.8564 111.74 100.111 113.221 103.715 112.904C104.777 112.811 105.831 112.634 106.885 112.457L106.885 112.457C107.914 112.284 108.943 112.111 109.98 112.016C112.606 111.777 115.026 112.362 116.936 114.356C117.572 115.022 117.899 115.787 117.864 116.734C117.831 117.575 117.838 118.418 117.846 119.261V119.261C117.849 119.623 117.852 119.985 117.852 120.346C117.852 122.057 117.833 122.076 116.093 122.076H27.4974H25.1531C23.7734 122.072 23.6756 121.975 23.6756 120.554C23.6756 120.185 23.6813 119.815 23.687 119.445C23.6999 118.609 23.7128 117.773 23.6599 116.941C23.5797 115.679 24.0944 114.734 24.9926 113.947C26.8712 112.3 29.1197 111.82 31.5346 112.002C32.1368 112.048 32.7341 112.161 33.3316 112.274C33.7261 112.348 34.1208 112.422 34.5169 112.478C35.5286 112.619 36.2292 112.172 36.3779 111.352C36.5443 110.439 36.0629 109.805 35.0198 109.572C34.5838 109.474 34.1448 109.387 33.7067 109.299L33.4934 109.257ZM67.7758 41.6535C68.7741 41.6513 69.7724 41.649 70.7708 41.649C71.6781 41.649 72.5853 41.6496 73.4925 41.6502C76.3946 41.6519 79.2959 41.6537 82.1972 41.6373C82.796 41.6353 83.0993 41.7939 83.3303 42.3985C85.8351 48.9777 86.7529 55.7839 86.2695 62.7837C85.7607 70.1339 84.1228 77.2904 82.4164 84.4312C82.117 85.6836 81.7569 85.936 80.4242 85.936C73.9781 85.938 67.534 85.938 61.0879 85.936C59.7709 85.936 59.4128 85.6719 59.1056 84.4155C57.5029 77.852 56.0469 71.2533 55.3776 64.5195C54.636 57.0422 55.4559 49.7311 58.0841 42.651C58.3561 41.9171 58.7024 41.6138 59.54 41.6256C62.2853 41.6657 65.0305 41.6596 67.7758 41.6535ZM80.4242 92.5387L80.1189 92.7989H80.117H61.2621C61.6613 91.2001 62.536 90.0005 63.673 88.9751C63.8061 88.8554 64.0691 88.86 64.3013 88.8641C64.3423 88.8648 64.3824 88.8655 64.4206 88.8655L65.8314 88.8634H65.8321H65.8327C69.5925 88.8576 73.3508 88.8518 77.1092 88.8832C77.5045 88.8871 78.0368 89.0925 78.2658 89.388C78.8312 90.1201 79.3407 90.8958 79.85 91.6712C80.0405 91.9612 80.2309 92.2511 80.4242 92.5387ZM86.4528 80.1512C86.768 78.7323 87.0926 77.271 87.4222 75.7894C91.2832 79.3941 94.561 85.0065 93.7371 88.3489C92.3557 87.6521 90.9685 86.9517 89.5595 86.2402C88.2461 85.577 86.9137 84.9042 85.5494 84.2159C85.8384 82.9168 86.141 81.5547 86.4528 80.1512ZM55.9843 84.2218L47.7926 88.3411C46.957 85.0554 50.1859 79.4606 54.0978 75.7914C54.4349 77.2971 54.7689 78.7898 55.0958 80.2511L55.103 80.2834L55.1193 80.3562C55.4144 81.6749 55.7036 82.9679 55.9843 84.2218ZM89.7059 113.691C87.1658 111.709 84.3165 111.272 81.1933 112.049V112.047C81.1439 111.927 81.0962 111.807 81.0487 111.688C80.94 111.415 80.8325 111.146 80.7099 110.883C79.3675 107.996 77.2325 106.065 74.0564 105.4C72.9488 105.169 72.1523 105.554 71.9567 106.417C71.7434 107.36 72.2482 108.03 73.4361 108.292C75.9331 108.846 77.4243 110.443 78.2638 112.781C78.4477 113.298 78.2834 113.55 77.9605 113.955C77.0388 115.11 76.164 116.317 75.4106 117.587C74.9977 118.284 75.4419 119.157 76.1308 119.462C76.8352 119.773 77.6278 119.493 78.0564 118.777C78.1126 118.684 78.1574 118.584 78.202 118.485L78.2297 118.424C78.2427 118.395 78.256 118.367 78.2697 118.339C80.1307 114.531 84.5024 113.478 87.8762 116.026C88.8664 116.773 89.6902 116.775 90.2734 116.031C90.8487 115.296 90.6472 114.427 89.7059 113.691ZM62.378 106.928L62.3782 106.928C62.9893 107.069 63.777 107.249 64.536 107.513C65.4362 107.826 65.7689 108.693 65.446 109.489C65.1505 110.217 64.3638 110.527 63.4773 110.261C60.2191 109.282 58.3267 109.955 56.4833 112.742C55.9315 113.577 55.1506 113.818 54.4031 113.386C53.6771 112.963 53.4579 112.124 53.9295 111.268C55.5322 108.37 58.0273 106.938 61.7983 106.793V106.791C61.9625 106.833 62.1589 106.878 62.378 106.928ZM60.0703 59.5803C60.5087 65.4158 65.6162 70.0263 71.1778 69.6095L71.1758 69.6114C77.211 69.3805 81.8313 64.2299 81.4418 58.2711C81.0465 52.2164 75.9409 47.8564 69.8647 48.2576C64.2327 48.6274 59.6457 53.9307 60.0703 59.5803ZM78.4967 58.9169C78.5045 63.1986 75.0525 66.6389 70.7492 66.633C66.4577 66.6271 62.9901 63.1438 63.0331 58.8836C63.0762 54.643 66.5164 51.1968 70.7336 51.1734C74.9762 51.1499 78.4888 54.6528 78.4967 58.9169Z" fill="#FFB900"/>
</g>
<defs>
<filter id="filter0_f_114_946" x="2.75" y="0" width="135" height="135" filterUnits="userSpaceOnUse" color-interpolation-filters="sRGB">
<feFlood flood-opacity="0" result="BackgroundImageFix"/>
<feBlend mode="normal" in="SourceGraphic" in2="BackgroundImageFix" result="shape"/>
<feGaussianBlur stdDeviation="5" result="effect1_foregroundBlur_114_946"/>
</filter>
<linearGradient id="paint0_linear_114_946" x1="70.25" y1="10" x2="70.25" y2="125" gradientUnits="userSpaceOnUse">
<stop stop-color="#FFB900"/>
<stop offset="1" stop-color="#FFB900" stop-opacity="0"/>
</linearGradient>
<clipPath id="clip0_114_946">
<rect width="140" height="125" fill="white" transform="translate(0.75)"/>
</clipPath>
</defs>
</svg>
