<svg width="193" height="22" viewBox="0 0 193 22" fill="none" xmlns="http://www.w3.org/2000/svg">
<path d="M0 20.8V1.20001H4.256L10.5 13.632L16.66 1.20001H20.916V20.8H17.332V7.27601L11.872 18H9.044L3.584 7.27601V20.8H0Z" fill="#FCFCFD"/>
<path d="M33.6227 21.136C31.6627 21.136 29.9454 20.7067 28.4708 19.848C27.0148 18.9893 25.8668 17.804 25.0268 16.292C24.2054 14.7613 23.7948 12.9973 23.7948 11C23.7948 9.00268 24.2054 7.24801 25.0268 5.73601C25.8668 4.20535 27.0148 3.01068 28.4708 2.15201C29.9454 1.29335 31.6627 0.864014 33.6227 0.864014C35.5641 0.864014 37.2721 1.29335 38.7467 2.15201C40.2214 3.01068 41.3694 4.20535 42.1908 5.73601C43.0121 7.24801 43.4228 9.00268 43.4228 11C43.4228 12.9973 43.0121 14.7613 42.1908 16.292C41.3694 17.804 40.2214 18.9893 38.7467 19.848C37.2721 20.7067 35.5641 21.136 33.6227 21.136ZM33.6227 17.916C35.4894 17.916 36.9734 17.3 38.0747 16.068C39.1947 14.836 39.7547 13.1467 39.7547 11C39.7547 8.85335 39.1947 7.16401 38.0747 5.93201C36.9734 4.70001 35.4894 4.08401 33.6227 4.08401C31.7561 4.08401 30.2627 4.70001 29.1427 5.93201C28.0227 7.16401 27.4627 8.85335 27.4627 11C27.4627 13.1467 28.0227 14.836 29.1427 16.068C30.2627 17.3 31.7561 17.916 33.6227 17.916Z" fill="#FCFCFD"/>
<path d="M55.4912 21.136C53.5312 21.136 51.8139 20.7067 50.3392 19.848C48.8832 18.9893 47.7352 17.804 46.8952 16.292C46.0739 14.7613 45.6632 12.9973 45.6632 11C45.6632 9.00268 46.0739 7.24801 46.8952 5.73601C47.7352 4.20535 48.8832 3.01068 50.3392 2.15201C51.8139 1.29335 53.5312 0.864014 55.4912 0.864014C57.4325 0.864014 59.1405 1.29335 60.6152 2.15201C62.0899 3.01068 63.2379 4.20535 64.0592 5.73601C64.8805 7.24801 65.2912 9.00268 65.2912 11C65.2912 12.9973 64.8805 14.7613 64.0592 16.292C63.2379 17.804 62.0899 18.9893 60.6152 19.848C59.1405 20.7067 57.4325 21.136 55.4912 21.136ZM55.4912 17.916C57.3579 17.916 58.8419 17.3 59.9432 16.068C61.0632 14.836 61.6232 13.1467 61.6232 11C61.6232 8.85335 61.0632 7.16401 59.9432 5.93201C58.8419 4.70001 57.3579 4.08401 55.4912 4.08401C53.6245 4.08401 52.1312 4.70001 51.0112 5.93201C49.8912 7.16401 49.3312 8.85335 49.3312 11C49.3312 13.1467 49.8912 14.836 51.0112 16.068C52.1312 17.3 53.6245 17.916 55.4912 17.916Z" fill="#FCFCFD"/>
<path d="M68.1756 20.8V1.20001H71.7596L80.9716 15.004V1.20001H84.5556V20.8H80.9716L71.7596 7.02401V20.8H68.1756Z" fill="#FCFCFD"/>
<path d="M88.0753 20.8V1.20001H95.9433C97.978 1.20001 99.5273 1.67601 100.591 2.62801C101.674 3.56135 102.215 4.76535 102.215 6.24001C102.215 7.47201 101.879 8.46135 101.207 9.20801C100.554 9.93601 99.7513 10.4307 98.7993 10.692C99.9193 10.916 100.843 11.476 101.571 12.372C102.299 13.2493 102.663 14.276 102.663 15.452C102.663 17.0013 102.103 18.28 100.983 19.288C99.8633 20.296 98.2766 20.8 96.2233 20.8H88.0753ZM91.6593 9.43201H95.4113C96.4193 9.43201 97.194 9.19868 97.7353 8.73201C98.2766 8.26535 98.5473 7.60268 98.5473 6.74401C98.5473 5.92268 98.2766 5.27868 97.7353 4.81201C97.2126 4.32668 96.4193 4.08401 95.3553 4.08401H91.6593V9.43201ZM91.6593 17.888H95.6633C96.7273 17.888 97.5486 17.6453 98.1273 17.16C98.7246 16.656 99.0233 15.956 99.0233 15.06C99.0233 14.1453 98.7153 13.4267 98.0993 12.904C97.4833 12.3813 96.6526 12.12 95.6073 12.12H91.6593V17.888Z" fill="#FCFCFD"/>
<path d="M105.459 20.8V1.20001H109.043V18H117.723V20.8H105.459Z" fill="#FCFCFD"/>
<path d="M128.008 21.136C126.048 21.136 124.331 20.7067 122.856 19.848C121.4 18.9893 120.252 17.804 119.412 16.292C118.591 14.7613 118.18 12.9973 118.18 11C118.18 9.00268 118.591 7.24801 119.412 5.73601C120.252 4.20535 121.4 3.01068 122.856 2.15201C124.331 1.29335 126.048 0.864014 128.008 0.864014C129.949 0.864014 131.657 1.29335 133.132 2.15201C134.607 3.01068 135.755 4.20535 136.576 5.73601C137.397 7.24801 137.808 9.00268 137.808 11C137.808 12.9973 137.397 14.7613 136.576 16.292C135.755 17.804 134.607 18.9893 133.132 19.848C131.657 20.7067 129.949 21.136 128.008 21.136ZM128.008 17.916C129.875 17.916 131.359 17.3 132.46 16.068C133.58 14.836 134.14 13.1467 134.14 11C134.14 8.85335 133.58 7.16401 132.46 5.93201C131.359 4.70001 129.875 4.08401 128.008 4.08401C126.141 4.08401 124.648 4.70001 123.528 5.93201C122.408 7.16401 121.848 8.85335 121.848 11C121.848 13.1467 122.408 14.836 123.528 16.068C124.648 17.3 126.141 17.916 128.008 17.916Z" fill="#FCFCFD"/>
<path d="M149.568 21.136C147.59 21.136 145.891 20.716 144.472 19.876C143.054 19.0173 141.962 17.832 141.196 16.32C140.431 14.7893 140.048 13.0253 140.048 11.028C140.048 9.03068 140.431 7.26668 141.196 5.73601C141.962 4.20535 143.054 3.01068 144.472 2.15201C145.891 1.29335 147.59 0.864014 149.568 0.864014C151.92 0.864014 153.843 1.45201 155.336 2.62801C156.848 3.78535 157.791 5.41868 158.164 7.52801H154.216C153.974 6.46401 153.451 5.63335 152.648 5.03601C151.864 4.42001 150.819 4.11201 149.512 4.11201C147.702 4.11201 146.283 4.72801 145.256 5.96001C144.23 7.19201 143.716 8.88135 143.716 11.028C143.716 13.1747 144.23 14.864 145.256 16.096C146.283 17.3093 147.702 17.916 149.512 17.916C150.819 17.916 151.864 17.636 152.648 17.076C153.451 16.4973 153.974 15.704 154.216 14.696H158.164C157.791 16.712 156.848 18.2893 155.336 19.428C153.843 20.5667 151.92 21.136 149.568 21.136Z" fill="#FCFCFD"/>
<path d="M161.057 20.8V1.20001H164.641V9.12401L171.893 1.20001H176.317L169.093 8.98401L176.513 20.8H172.117L166.517 11.728L164.641 13.772V20.8H161.057Z" fill="#FCFCFD"/>
<path d="M185.379 21.136C183.942 21.136 182.672 20.8933 181.571 20.408C180.47 19.904 179.602 19.1947 178.967 18.28C178.332 17.3467 178.006 16.2173 177.987 14.892H181.767C181.804 15.8067 182.131 16.5813 182.747 17.216C183.382 17.832 184.25 18.14 185.351 18.14C186.303 18.14 187.059 17.916 187.619 17.468C188.179 17.0013 188.459 16.3853 188.459 15.62C188.459 14.8173 188.207 14.192 187.703 13.744C187.218 13.296 186.564 12.932 185.743 12.652C184.922 12.372 184.044 12.0733 183.111 11.756C181.599 11.2333 180.442 10.5613 179.639 9.74002C178.855 8.91868 178.463 7.82668 178.463 6.46401C178.444 5.30668 178.715 4.31735 179.275 3.49601C179.854 2.65601 180.638 2.01201 181.627 1.56401C182.616 1.09735 183.755 0.864014 185.043 0.864014C186.35 0.864014 187.498 1.09735 188.487 1.56401C189.495 2.03068 190.279 2.68401 190.839 3.52401C191.418 4.36401 191.726 5.36268 191.763 6.52001H187.927C187.908 5.82935 187.638 5.22268 187.115 4.70001C186.611 4.15868 185.902 3.88801 184.987 3.88801C184.203 3.86935 183.54 4.06535 182.999 4.47602C182.476 4.86801 182.215 5.44668 182.215 6.21201C182.215 6.86535 182.42 7.38801 182.831 7.78001C183.242 8.15335 183.802 8.47068 184.511 8.73201C185.22 8.99335 186.032 9.27335 186.947 9.57201C187.918 9.90801 188.804 10.3 189.607 10.748C190.41 11.196 191.054 11.7933 191.539 12.54C192.024 13.268 192.267 14.2107 192.267 15.368C192.267 16.3947 192.006 17.3467 191.483 18.224C190.96 19.1013 190.186 19.8107 189.159 20.352C188.132 20.8747 186.872 21.136 185.379 21.136Z" fill="#FCFCFD"/>
</svg>
