<svg width="210" height="210" viewBox="0 0 210 210" fill="none" xmlns="http://www.w3.org/2000/svg">
<circle cx="105" cy="105" r="90" fill="#212437"/>
<circle cx="105" cy="105" r="104.5" stroke="#212437"/>
<path d="M138.42 78.8657V157.574C138.42 159.808 137.533 161.95 135.954 163.529C134.374 165.108 132.232 165.995 129.999 165.995H62.6307C60.3973 165.995 58.2554 165.108 56.6762 163.529C55.0969 161.95 54.2097 159.808 54.2097 157.574V62.8377C54.2097 60.6043 55.0969 58.4623 56.6762 56.8831C58.2554 55.3038 60.3973 54.4166 62.6307 54.4166H113.662C113.662 54.4166 138.82 78.4587 138.42 78.8657Z" fill="#212437" stroke="#FFB900" stroke-width="3" stroke-linecap="round" stroke-linejoin="round"/>
<path d="M138.139 78.9781H122.279C120.046 78.9781 117.904 78.0908 116.325 76.5116C114.745 74.9324 113.858 72.7904 113.858 70.557V54.9431" stroke="#FFB900" stroke-width="3" stroke-linecap="round" stroke-linejoin="round"/>
<path d="M149.648 90.0939V168.802C149.648 171.036 148.761 173.178 147.181 174.757C145.602 176.336 143.46 177.223 141.227 177.223H73.8585C71.6251 177.223 69.4832 176.336 67.904 174.757C66.3247 173.178 65.4375 171.036 65.4375 168.802V74.0659C65.4375 71.8325 66.3247 69.6906 67.904 68.1114C69.4832 66.5321 71.6251 65.6449 73.8585 65.6449H124.89C124.89 65.6449 150.048 89.6869 149.648 90.0939Z" fill="#212437" stroke="#FFB900" stroke-width="3" stroke-linecap="round" stroke-linejoin="round"/>
<path d="M149.368 90.2064H133.508C131.275 90.2064 129.133 89.3192 127.554 87.7399C125.974 86.1607 125.087 84.0188 125.087 81.7854V66.1714" stroke="#FFB900" stroke-width="3" stroke-linecap="round" stroke-linejoin="round"/>
<path d="M148.279 167.764C166.692 167.764 181.619 152.837 181.619 134.424C181.619 116.011 166.692 101.084 148.279 101.084C129.866 101.084 114.939 116.011 114.939 134.424C114.939 152.837 129.866 167.764 148.279 167.764Z" fill="#212437" stroke="#FFB900" stroke-width="3" stroke-miterlimit="10"/>
<path d="M163.534 151.743C158.941 155.789 152.928 157.845 146.819 157.458C140.71 157.071 135.005 154.273 130.959 149.68" fill="#FFB900"/>
<path d="M163.534 151.743C158.941 155.789 152.928 157.845 146.819 157.458C140.71 157.071 135.005 154.273 130.959 149.68" stroke="#FFB900" stroke-width="3" stroke-miterlimit="10"/>
<path d="M133.023 117.139C137.613 113.093 143.621 111.034 149.727 111.414C155.834 111.794 161.54 114.583 165.592 119.168" fill="#FFB900"/>
<path d="M133.023 117.139C137.613 113.093 143.621 111.034 149.727 111.414C155.834 111.794 161.54 114.583 165.592 119.168" stroke="#FFB900" stroke-width="3" stroke-miterlimit="10"/>
<path d="M116.836 162.109L116.831 162.104C114.024 158.916 109.164 158.608 105.976 161.416L86.7276 178.367C83.5399 181.175 83.2315 186.035 86.0389 189.223L86.0436 189.228C88.851 192.416 93.711 192.724 96.8988 189.917L116.147 172.965C119.335 170.157 119.643 165.297 116.836 162.109Z" fill="#212437" stroke="#FFB900" stroke-width="3" stroke-miterlimit="10"/>
<path d="M116.279 161.469L122.693 155.82" stroke="#FFB900" stroke-width="3" stroke-miterlimit="10"/>
<path d="M148.033 159.574C161.993 159.574 173.31 148.257 173.31 134.297C173.31 120.337 161.993 109.02 148.033 109.02C134.073 109.02 122.756 120.337 122.756 134.297C122.756 148.257 134.073 159.574 148.033 159.574Z" fill="#212437"/>
<path d="M144.083 148.129H140.805V151.413H144.083V148.129ZM135.921 125.968H156.609C157.021 125.971 157.415 126.137 157.706 126.428C157.998 126.719 158.163 127.114 158.167 127.526V135.287C158.169 135.492 158.129 135.696 158.049 135.886C157.97 136.075 157.852 136.247 157.704 136.389C157.562 136.536 157.392 136.653 157.204 136.731C157.015 136.81 156.813 136.848 156.609 136.845H145.647C145.011 136.835 144.38 136.954 143.791 137.195C143.203 137.437 142.669 137.795 142.223 138.248C141.764 138.694 141.403 139.229 141.161 139.821C140.92 140.413 140.803 141.048 140.819 141.687V143.371H144.097V141.701C144.102 141.288 144.269 140.894 144.561 140.603C144.854 140.312 145.249 140.147 145.661 140.143H156.609C157.892 140.141 159.122 139.63 160.028 138.722C160.935 137.814 161.444 136.584 161.444 135.301V127.526C161.459 126.884 161.342 126.245 161.1 125.65C160.859 125.055 160.498 124.516 160.04 124.066C159.597 123.611 159.065 123.252 158.477 123.01C157.889 122.769 157.258 122.651 156.623 122.662L135.935 122.62L135.921 125.968Z" fill="#FFB900"/>
<path d="M78.7715 97.9258H118.771" stroke="#FFB900" stroke-width="3" stroke-linecap="round" stroke-linejoin="round"/>
<path d="M78.7715 109.154H116.666" stroke="#FFB900" stroke-width="3" stroke-linecap="round" stroke-linejoin="round"/>
<path d="M78.7715 120.381H107.543" stroke="#FFB900" stroke-width="3" stroke-linecap="round" stroke-linejoin="round"/>
<path d="M78.7715 131.609H107.543" stroke="#FFB900" stroke-width="3" stroke-linecap="round" stroke-linejoin="round"/>
<path d="M49.4016 31H47.5984V34.6032H44V36.4048H47.5984V40H49.4016V36.4048H53V34.6032H49.4016V31Z" fill="#FFB900"/>
<path d="M184.709 170H183.144V173.137H180V174.709H183.144V177.846H184.709V174.709H187.853V173.137H184.709V170Z" fill="#FFB900"/>
<path d="M27.7158 146H26.1438V149.144H23V150.709H26.1438V153.853H27.7158V150.709H30.8526V149.144H27.7158V146Z" fill="#FFB900"/>
<path d="M187.709 37H186.144V40.1368H183V41.7088H186.144V44.8456H187.709V41.7088H190.853V40.1368H187.709V37Z" fill="#FFB900"/>
<path d="M117.53 20.0596C119.479 20.0596 121.06 18.4793 121.06 16.5298C121.06 14.5804 119.479 13 117.53 13C115.58 13 114 14.5804 114 16.5298C114 18.4793 115.58 20.0596 117.53 20.0596Z" stroke="#FFB900" stroke-width="2.24" stroke-miterlimit="10"/>
<path d="M6.52981 74.0596C8.47928 74.0596 10.0596 72.4793 10.0596 70.5298C10.0596 68.5804 8.47928 67 6.52981 67C4.58035 67 3 68.5804 3 70.5298C3 72.4793 4.58035 74.0596 6.52981 74.0596Z" stroke="#FFB900" stroke-width="2.24" stroke-miterlimit="10"/>
<path d="M195.53 109.06C197.479 109.06 199.06 107.479 199.06 105.53C199.06 103.58 197.479 102 195.53 102C193.58 102 192 103.58 192 105.53C192 107.479 193.58 109.06 195.53 109.06Z" stroke="#FFB900" stroke-width="2.24" stroke-miterlimit="10"/>
</svg>
