<svg width="19" height="20" viewBox="0 0 19 20" fill="none" xmlns="http://www.w3.org/2000/svg">
<path fill-rule="evenodd" clip-rule="evenodd" d="M16.875 3.75C16.875 4.78554 16.0355 5.625 15 5.625C13.9645 5.625 13.125 4.78554 13.125 3.75C13.125 2.71446 13.9645 1.875 15 1.875C16.0355 1.875 16.875 2.71446 16.875 3.75ZM18.75 3.75C18.75 5.82106 17.0711 7.5 15 7.5C13.9299 7.5 12.9645 7.05179 12.2813 6.33285L7.3801 9.05571C7.45836 9.3574 7.5 9.67384 7.5 10C7.5 10.3262 7.45835 10.6426 7.38009 10.9443L12.2812 13.6672C12.9645 12.9482 13.9299 12.5 15 12.5C17.0711 12.5 18.75 14.1789 18.75 16.25C18.75 18.3211 17.0711 20 15 20C12.9289 20 11.25 18.3211 11.25 16.25C11.25 15.9239 11.2916 15.6075 11.3699 15.3057L6.46866 12.5829C5.78545 13.3018 4.82006 13.75 3.75 13.75C1.67894 13.75 0 12.0711 0 10C0 7.92894 1.67894 6.25 3.75 6.25C4.82009 6.25 5.78548 6.69821 6.4687 7.41713L11.3699 4.69425C11.2916 4.39257 11.25 4.07615 11.25 3.75C11.25 1.67894 12.9289 0 15 0C17.0711 0 18.75 1.67894 18.75 3.75ZM16.875 16.25C16.875 17.2855 16.0355 18.125 15 18.125C13.9645 18.125 13.125 17.2855 13.125 16.25C13.125 15.2145 13.9645 14.375 15 14.375C16.0355 14.375 16.875 15.2145 16.875 16.25ZM5.625 10C5.625 11.0355 4.78554 11.875 3.75 11.875C2.71446 11.875 1.875 11.0355 1.875 10C1.875 8.96446 2.71446 8.125 3.75 8.125C4.78554 8.125 5.625 8.96446 5.625 10Z" fill="#FFB900"/>
</svg>
