<svg width="545" height="160" viewBox="0 0 545 160" fill="none" xmlns="http://www.w3.org/2000/svg">
<g clip-path="url(#clip0_15_77)">
<rect width="545" height="160" rx="16" fill="#212437"/>
<circle opacity="0.1" cx="468.5" cy="41.5" r="139.5" fill="url(#paint0_linear_15_77)"/>
<path opacity="0.8" fill-rule="evenodd" clip-rule="evenodd" d="M497.983 84.6945C497.983 82.9582 497.983 81.2219 497.983 79.4856L497.981 79.4876C497.981 78.1634 497.981 76.8391 497.981 75.5149C497.981 67.589 497.981 59.6637 497.99 51.7377C497.991 51.3347 497.887 51.0945 497.519 50.8904C496.978 50.5901 496.448 50.2712 495.918 49.9523C495.464 49.6791 495.01 49.406 494.549 49.1445C493.787 48.7112 493.021 48.286 492.254 47.8608C491.301 47.3321 490.348 46.8034 489.404 46.2596C488.431 45.6999 487.467 45.1245 486.503 44.549C485.777 44.1155 485.051 43.682 484.321 43.2552C483.652 42.8644 482.978 42.4838 482.304 42.1031C481.762 41.797 481.22 41.4909 480.68 41.1794C479.971 40.7698 479.265 40.3554 478.559 39.9411C477.87 39.5371 477.181 39.1331 476.49 38.7336C474.828 37.773 473.161 36.8207 471.494 35.8693C470.802 35.474 470.108 35.0805 469.415 34.687C468.411 34.1173 467.407 33.5476 466.407 32.9721C465.487 32.4433 464.57 31.9096 463.653 31.3759C462.839 30.9026 462.026 30.4293 461.211 29.9594C460.697 29.6635 460.18 29.3731 459.663 29.0827C459.104 28.7681 458.544 28.4536 457.988 28.132C457.321 27.7455 456.657 27.3522 455.993 26.9588C455.536 26.6881 455.08 26.4175 454.622 26.149C454.281 25.9489 453.94 25.748 453.599 25.5471C452.402 24.8412 451.204 24.135 449.987 23.4651C449.903 23.4186 449.819 23.3628 449.735 23.3063C449.39 23.0757 449.026 22.8325 448.515 23.157C447.304 23.9258 446.062 24.6494 444.815 25.3616C444.012 25.8201 443.203 26.2684 442.394 26.7166C441.463 27.2327 440.531 27.7488 439.609 28.2805C438.756 28.7719 437.912 29.2789 437.069 29.7858C436.253 30.2761 435.437 30.7663 434.612 31.2426C433.723 31.7562 432.826 32.2558 431.928 32.7554C431.1 33.2163 430.272 33.6773 429.451 34.1491C428.749 34.5522 428.056 34.9686 427.363 35.3851C426.685 35.7919 426.008 36.1987 425.324 36.5929C424.42 37.1128 423.511 37.6219 422.601 38.1309C421.785 38.5876 420.969 39.0442 420.158 39.5087C419.392 39.9474 418.631 40.3961 417.871 40.8447C417.225 41.2256 416.579 41.6065 415.93 41.9813C415.118 42.4507 414.301 42.9134 413.485 43.376C412.918 43.6975 412.351 44.0189 411.785 44.3425C410.018 45.3536 408.252 46.3668 406.489 47.3861L406.268 47.5138C404.422 48.5824 402.574 49.6517 400.739 50.741C400.689 50.7706 400.638 50.7984 400.586 50.8262C400.294 50.9842 400 51.1428 400 51.6398C400.018 70.2085 400.014 88.7772 400.005 107.345C400.005 107.705 400.147 107.901 400.434 108.061C401.542 108.681 402.649 109.3 403.75 109.932C405.949 111.195 408.148 112.46 410.339 113.737C411.24 114.262 412.137 114.794 413.034 115.325C414.107 115.96 415.18 116.596 416.26 117.221C417.167 117.746 418.081 118.259 418.995 118.771C419.797 119.221 420.599 119.671 421.396 120.129C422.278 120.637 423.156 121.153 424.034 121.668C424.855 122.151 425.676 122.633 426.501 123.109C427.31 123.575 428.123 124.035 428.936 124.494C429.823 124.996 430.71 125.497 431.592 126.007C432.408 126.479 433.217 126.96 434.027 127.44C434.893 127.955 435.759 128.469 436.631 128.972C437.447 129.442 438.269 129.901 439.091 130.361C439.984 130.861 440.878 131.361 441.764 131.874C443.082 132.638 444.394 133.412 445.706 134.185C446.737 134.793 447.768 135.401 448.802 136.004C448.895 136.06 449.078 136.056 449.174 136.002C450.649 135.166 452.119 134.323 453.585 133.471C454.09 133.178 454.593 132.88 455.096 132.582C455.681 132.234 456.266 131.887 456.856 131.547C457.785 131.012 458.716 130.483 459.648 129.953C460.435 129.505 461.223 129.058 462.009 128.607C462.701 128.21 463.39 127.808 464.08 127.405C464.497 127.161 464.915 126.917 465.334 126.674C466.032 126.269 466.731 125.865 467.431 125.46C468.445 124.874 469.459 124.287 470.472 123.699C470.923 123.436 471.372 123.171 471.821 122.905C472.418 122.552 473.014 122.2 473.614 121.855C474.463 121.366 475.315 120.882 476.166 120.398C477.07 119.884 477.973 119.371 478.873 118.852C479.474 118.506 480.07 118.152 480.667 117.798C481.389 117.371 482.11 116.943 482.839 116.528C483.574 116.11 484.316 115.702 485.057 115.294C485.764 114.906 486.47 114.518 487.171 114.121C488.143 113.568 489.109 113.004 490.075 112.439C490.558 112.157 491.041 111.875 491.524 111.594C491.943 111.351 492.362 111.108 492.782 110.864C494.294 109.986 495.806 109.108 497.324 108.24C497.81 107.962 498.001 107.623 498 107.029C497.981 99.5845 497.982 92.1395 497.983 84.6945ZM493.855 79.4691H493.853L493.855 79.4677V79.4691ZM493.855 55.3739V79.4677L493.859 79.465C493.859 81.4949 493.858 83.5249 493.858 85.5548C493.856 91.6425 493.855 97.7302 493.866 103.818C493.868 105.027 493.308 105.768 492.252 106.289C491.607 106.608 490.991 106.986 490.375 107.364C490.083 107.544 489.79 107.723 489.495 107.896C489.232 108.05 488.97 108.204 488.707 108.358C487.169 109.26 485.631 110.162 484.088 111.055C481.909 112.318 479.726 113.572 477.541 114.823C476.811 115.241 476.08 115.656 475.349 116.07C474.377 116.621 473.405 117.172 472.437 117.73C471.566 118.232 470.7 118.741 469.833 119.251C469.007 119.736 468.181 120.221 467.352 120.7C466.373 121.266 465.392 121.827 464.411 122.388C463.409 122.961 462.407 123.534 461.408 124.112C460.62 124.568 459.837 125.029 459.053 125.49C458.142 126.026 457.231 126.562 456.315 127.088C454.647 128.048 452.968 128.988 451.289 129.928L451.179 129.99C450.961 130.113 450.736 130.226 450.512 130.338C450.216 130.487 449.92 130.636 449.637 130.807C449.026 131.177 448.444 130.942 447.945 130.668C447.141 130.227 446.355 129.753 445.569 129.279C445.002 128.937 444.435 128.595 443.861 128.266C442.94 127.736 442.013 127.219 441.085 126.702C440.292 126.26 439.498 125.817 438.708 125.367C438.089 125.015 437.478 124.648 436.867 124.282C436.411 124.008 435.954 123.735 435.495 123.467C434.599 122.945 433.701 122.428 432.802 121.912C432.312 121.63 431.821 121.348 431.332 121.065C430.71 120.706 430.089 120.346 429.467 119.985C429.037 119.735 428.606 119.485 428.175 119.236C427.485 118.836 426.795 118.438 426.105 118.039C425.052 117.43 423.999 116.821 422.947 116.211C422.363 115.872 421.781 115.532 421.198 115.193C420.081 114.542 418.964 113.891 417.842 113.248C417.073 112.806 416.3 112.371 415.527 111.936C414.575 111.401 413.624 110.865 412.679 110.318C411.602 109.695 410.533 109.058 409.463 108.421C408.857 108.06 408.25 107.698 407.642 107.34C407.115 107.029 406.585 106.721 406.056 106.413C405.711 106.213 405.367 106.013 405.022 105.812C404.424 105.463 404.256 104.87 404.158 104.246C404.139 104.125 404.142 104.001 404.146 103.877C404.147 103.828 404.148 103.78 404.148 103.731C404.148 101.422 404.148 99.1131 404.148 96.804C404.147 82.9469 404.147 69.0898 404.137 55.2327C404.136 54.5411 404.24 53.8846 404.715 53.3991C405.022 53.0861 405.424 52.8589 405.817 52.6362C405.886 52.5971 405.955 52.5582 406.023 52.5189C406.707 52.1251 407.395 51.7378 408.082 51.3505C408.935 50.8702 409.788 50.3899 410.634 49.8969C411.428 49.4337 412.217 48.9593 413.005 48.4849C413.887 47.9543 414.769 47.4237 415.66 46.9089C416.517 46.4136 417.384 45.9337 418.25 45.4538C419.106 44.9801 419.961 44.5064 420.807 44.0179C421.651 43.5304 422.486 43.0282 423.321 42.526C424.156 42.0238 424.991 41.5216 425.835 41.0341C426.704 40.5319 427.582 40.044 428.461 39.5561C429.3 39.0896 430.14 38.6231 430.972 38.144C431.703 37.7236 432.425 37.2879 433.147 36.8523C433.782 36.4689 434.417 36.0856 435.059 35.7127C435.702 35.3377 436.355 34.9767 437.007 34.6157C437.477 34.3554 437.947 34.0951 438.414 33.8296C439.395 33.272 440.37 32.7034 441.345 32.135L441.534 32.0249C442.536 31.4404 443.536 30.8535 444.536 30.2663L444.906 30.0491C445.239 29.8537 445.571 29.6569 445.903 29.4601C446.546 29.0786 447.19 28.697 447.84 28.3258C448.589 27.8981 449.367 27.8713 450.121 28.3103C451.07 28.8641 452.016 29.4233 452.962 29.9825C453.96 30.5723 454.958 31.162 455.96 31.7456C457.558 32.6766 459.161 33.599 460.764 34.5214C461.376 34.8733 461.988 35.2252 462.599 35.5777C464.784 36.8382 466.97 38.0987 469.159 39.3541C469.884 39.7702 470.611 40.1836 471.337 40.5971C472.319 41.1556 473.301 41.7141 474.279 42.2791C475.191 42.8055 476.099 43.3384 477.007 43.8713C477.784 44.3277 478.562 44.784 479.342 45.2361C480.204 45.7364 481.069 46.2326 481.934 46.7287C482.734 47.1872 483.534 47.6458 484.331 48.1076C486.342 49.2713 488.348 50.44 490.354 51.6109C491.241 52.1283 492.124 52.6519 493.006 53.1765C493.564 53.5084 493.732 54.0732 493.841 54.6545C493.872 54.8199 493.866 54.9921 493.86 55.164C493.857 55.2342 493.855 55.3043 493.855 55.3739ZM408.162 75.091C408.162 76.5455 408.162 78.0001 408.162 79.4547V79.4526C408.162 81.263 408.162 83.0734 408.163 84.8839C408.165 90.5737 408.167 96.2635 408.142 101.953C408.138 102.762 408.307 103.262 409.072 103.656C409.996 104.132 410.89 104.664 411.785 105.197C412.255 105.477 412.725 105.756 413.199 106.028C413.979 106.474 414.762 106.915 415.545 107.356C416.476 107.881 417.407 108.406 418.333 108.939C419.237 109.461 420.136 109.991 421.035 110.521C421.82 110.983 422.604 111.446 423.392 111.902C424.377 112.473 425.364 113.037 426.352 113.602C427.084 114.02 427.816 114.439 428.547 114.859C429.025 115.136 429.503 115.415 429.98 115.694C430.582 116.046 431.185 116.398 431.79 116.745C432.278 117.023 432.768 117.296 433.258 117.569C433.876 117.914 434.495 118.258 435.107 118.613C435.75 118.986 436.387 119.368 437.025 119.749C437.76 120.189 438.495 120.628 439.237 121.055C440.317 121.675 441.402 122.286 442.487 122.897C443.422 123.423 444.356 123.95 445.288 124.482C445.863 124.81 446.434 125.147 447.004 125.484C447.588 125.828 448.172 126.173 448.76 126.508C448.883 126.577 449.112 126.576 449.236 126.508C450.84 125.624 452.445 124.736 454.03 123.817C454.842 123.346 455.646 122.863 456.45 122.38C457.315 121.861 458.18 121.342 459.054 120.837C459.936 120.328 460.827 119.834 461.718 119.34C462.546 118.881 463.373 118.422 464.194 117.951C465.183 117.383 466.165 116.802 467.147 116.221C467.873 115.792 468.599 115.362 469.329 114.938C470.279 114.385 471.232 113.838 472.185 113.291C472.978 112.835 473.772 112.38 474.563 111.921C475.188 111.559 475.81 111.193 476.432 110.828C477.12 110.423 477.807 110.018 478.499 109.62C479.773 108.884 481.05 108.155 482.328 107.426C482.783 107.165 483.239 106.905 483.694 106.645C484.18 106.367 484.666 106.089 485.153 105.811C486.517 105.031 487.882 104.25 489.25 103.476C489.662 103.242 489.858 102.974 489.857 102.444C489.837 94.4798 489.838 86.5164 489.839 78.5525C489.839 77.0767 489.839 75.6009 489.839 74.125V56.4644C489.839 56.4436 489.839 56.423 489.839 56.4025C489.842 56.0856 489.844 55.8063 489.433 55.6398C489.091 55.5007 488.772 55.3011 488.455 55.1017C488.318 55.0159 488.181 54.9302 488.043 54.8493C487.708 54.6544 487.374 54.4588 487.041 54.2632C486.282 53.8183 485.523 53.3737 484.759 52.9384C484.274 52.6624 483.786 52.3935 483.297 52.1245C482.676 51.7828 482.056 51.4411 481.443 51.0852C480.658 50.6288 479.878 50.1633 479.098 49.6979C478.205 49.165 477.312 48.6321 476.411 48.1128C475.534 47.6069 474.649 47.114 473.764 46.6213C472.929 46.1563 472.094 45.6914 471.265 45.2155C470.307 44.6653 469.356 44.1029 468.404 43.5404C467.649 43.0936 466.893 42.6467 466.133 42.2059C465.606 41.8997 465.073 41.6027 464.54 41.3056C463.97 40.9876 463.4 40.6697 462.836 40.3404C462.224 39.9824 461.617 39.6157 461.009 39.2491C460.27 38.8031 459.532 38.3571 458.784 37.9266C457.863 37.3974 456.935 36.881 456.008 36.3647C455.215 35.9236 454.423 35.4826 453.634 35.0335C452.916 34.624 452.202 34.2068 451.488 33.7896C450.746 33.3562 450.004 32.9228 449.257 32.498C449.124 32.4227 448.878 32.4248 448.743 32.498C448.175 32.8044 447.616 33.1293 447.058 33.4541C446.861 33.5686 446.664 33.683 446.467 33.7966C444.753 34.784 443.038 35.7703 441.324 36.7566L441.313 36.7629C440.888 37.0071 440.464 37.2512 440.039 37.4953C439.344 37.8951 438.649 38.2949 437.954 38.6955C436.266 39.6687 434.579 40.6441 432.892 41.6195L432.888 41.6216C432.387 41.9109 431.887 42.201 431.387 42.491C430.805 42.8281 430.223 43.1653 429.641 43.5015C428.972 43.8881 428.302 44.2741 427.632 44.6601C426.582 45.2651 425.532 45.8703 424.484 46.4781C424.034 46.7394 423.585 47.0036 423.137 47.2677C422.52 47.631 421.903 47.9942 421.282 48.3498C420.448 48.8282 419.611 49.3022 418.774 49.7762C417.882 50.2816 416.99 50.787 416.1 51.2976C415.55 51.6132 415.005 51.936 414.459 52.2589C413.928 52.5727 413.397 52.8866 412.863 53.194L412.721 53.2757C411.374 54.0514 410.027 54.8269 408.662 55.5697C408.237 55.8016 408.153 56.0912 408.153 56.5417C408.164 62.7253 408.163 68.9082 408.162 75.091ZM477.513 65.0566C477.506 65.0692 477.499 65.0818 477.492 65.0942L477.494 65.0983C477.322 65.0184 477.149 64.9412 476.976 64.864C476.593 64.6935 476.211 64.523 475.846 64.3222C474.754 63.722 473.677 63.0967 472.6 62.4719L472.42 62.367C472.053 62.154 471.689 61.9353 471.326 61.7165C470.944 61.4866 470.562 61.2568 470.176 61.0333C469.73 60.7754 469.28 60.5234 468.831 60.2714C468.424 60.0431 468.017 59.8148 467.613 59.5822C467.246 59.3715 466.882 59.1554 466.518 58.9393C466.135 58.7114 465.751 58.4835 465.364 58.2619C464.769 57.9216 464.173 57.5849 463.577 57.2482C462.829 56.8262 462.081 56.4042 461.338 55.9748C460.543 55.5156 459.752 55.0498 458.961 54.5841C458.284 54.1853 457.607 53.7865 456.927 53.3919C455.185 52.3798 453.438 51.3769 451.69 50.3741C451.441 50.2315 451.187 50.0961 450.933 49.9607C450.391 49.6723 449.851 49.384 449.36 49.027C448.969 48.7426 448.705 48.9271 448.478 49.0848C448.424 49.1226 448.372 49.1588 448.321 49.1867C447.121 49.8435 445.943 50.5376 444.764 51.2317C444.361 51.4688 443.958 51.706 443.554 51.9417C442.908 52.3194 442.262 52.6975 441.616 53.0755C439.972 54.0377 438.329 54.9996 436.681 55.9542C435.735 56.5017 434.786 57.0433 433.837 57.5849C432.841 58.1536 431.845 58.7223 430.852 59.2977C430.036 59.7711 429.223 60.2516 428.411 60.7321C427.499 61.2715 426.587 61.8109 425.669 62.3403C424.556 62.983 423.434 63.6091 422.312 64.2353C421.933 64.4465 421.555 64.6577 421.176 64.8695C420.421 65.2931 418.971 64.7067 418.662 63.8574C418.201 62.5825 418.539 61.7888 419.751 61.1117C420.39 60.7545 421.016 60.3753 421.642 59.9961C422.1 59.7188 422.558 59.4416 423.021 59.173C423.712 58.7719 424.407 58.3784 425.102 57.9849C425.768 57.6078 426.434 57.2306 427.097 56.8467C428.109 56.2591 429.118 55.6654 430.127 55.0717C430.845 54.6492 431.563 54.2266 432.283 53.8062C433.46 53.1177 434.637 52.4303 435.822 51.7562C436.56 51.3359 437.301 50.9204 438.042 50.5048C439.001 49.9664 439.961 49.4281 440.915 48.8796C441.794 48.3743 442.667 47.8605 443.541 47.3466C444.36 46.8648 445.18 46.383 446.003 45.9081C446.455 45.6475 446.916 45.4055 447.377 45.1634C447.637 45.0273 447.897 44.8912 448.154 44.7517C448.892 44.3528 449.593 44.5425 450.26 44.9125C451.412 45.5515 452.553 46.2112 453.69 46.877C454.176 47.1615 454.658 47.4525 455.14 47.7435C455.744 48.1082 456.348 48.473 456.959 48.825C457.538 49.1578 458.123 49.4785 458.708 49.7992C459.251 50.0972 459.795 50.3951 460.333 50.7029C460.892 51.0228 461.444 51.3544 461.997 51.6859C462.444 51.9547 462.892 52.2234 463.343 52.4859C464.799 53.3331 466.259 54.1711 467.722 55.0059C468.33 55.3531 468.941 55.6973 469.551 56.0415C470.466 56.5577 471.381 57.0739 472.291 57.6002C472.881 57.9411 473.464 58.2944 474.047 58.6477C474.534 58.9426 475.021 59.2376 475.512 59.5255C476.45 60.0759 477.397 60.6097 478.344 61.1426C479.101 61.5693 479.585 62.1887 479.562 63.0741C479.54 63.9419 479.023 64.5335 478.264 64.8953C478.125 64.9607 477.957 64.9642 477.789 64.9677C477.711 64.9693 477.633 64.9709 477.558 64.9788C477.543 65.0045 477.528 65.0306 477.513 65.0566ZM448.997 114.484C448.987 114.462 448.978 114.441 448.969 114.419H448.968C448.32 114.46 447.818 114.138 447.321 113.818C447.177 113.726 447.034 113.634 446.888 113.551C446.081 113.094 445.285 112.619 444.488 112.144C443.926 111.809 443.364 111.474 442.799 111.145C441.855 110.596 440.908 110.054 439.96 109.511C439.3 109.133 438.64 108.756 437.982 108.375C436.88 107.741 435.781 107.103 434.681 106.466C433.999 106.071 433.318 105.676 432.635 105.281C431.826 104.814 431.016 104.347 430.207 103.879C429.398 103.412 428.589 102.945 427.78 102.478C427.295 102.198 426.81 101.916 426.325 101.635C425.356 101.071 424.386 100.508 423.411 99.9549C422.95 99.6937 422.484 99.4418 422.018 99.19C421.353 98.8306 420.689 98.4713 420.039 98.0852L420.001 98.0622C419.412 97.7123 418.818 97.3587 418.567 96.6093C418.301 95.8136 418.628 94.7407 419.358 94.3232C420.133 93.879 420.889 93.9347 421.632 94.3686C422.166 94.6804 422.697 94.9983 423.228 95.3162C423.911 95.7255 424.595 96.1348 425.286 96.5309C426.364 97.1494 427.447 97.7605 428.529 98.3716C429.744 99.057 430.958 99.7424 432.166 100.438C433.363 101.127 434.551 101.829 435.739 102.531C436.523 102.994 437.307 103.457 438.093 103.916C439.708 104.86 441.325 105.802 442.95 106.728C444.016 107.335 445.086 107.934 446.157 108.532C446.804 108.894 447.45 109.255 448.096 109.618C448.222 109.691 448.341 109.78 448.457 109.869C449.037 110.311 449.472 109.996 449.883 109.699C449.999 109.616 450.113 109.534 450.227 109.47C451.171 108.947 452.096 108.39 453.021 107.833C453.581 107.496 454.14 107.159 454.703 106.829C455.797 106.19 456.896 105.561 457.996 104.932C458.515 104.635 459.035 104.338 459.554 104.039C461.327 103.019 463.1 101.999 464.873 100.976C465.101 100.844 465.329 100.713 465.558 100.581C466.949 99.7781 468.339 98.9753 469.728 98.1687C470.279 97.8487 470.828 97.5266 471.376 97.2046C472.276 96.677 473.175 96.1495 474.079 95.6312C474.242 95.538 474.404 95.4439 474.566 95.3497C475.313 94.9168 476.061 94.4829 476.846 94.1367C477.72 93.7512 478.958 94.214 479.359 95.2158C479.888 96.5392 479.096 97.4369 478.007 98.0687C477.519 98.3513 477.024 98.6218 476.53 98.8923C476.07 99.1436 475.61 99.3949 475.156 99.656C474.046 100.294 472.942 100.942 471.838 101.591C471.532 101.77 471.227 101.949 470.921 102.129C470.26 102.516 469.6 102.904 468.94 103.292C467.873 103.919 466.806 104.546 465.737 105.17C464.811 105.711 463.882 106.246 462.953 106.781C462.685 106.936 462.416 107.091 462.148 107.246C461.618 107.552 461.089 107.857 460.56 108.163C458.893 109.127 457.225 110.091 455.553 111.046C453.845 112.02 452.129 112.981 450.406 113.929C450.102 114.097 449.78 114.231 449.457 114.365C449.313 114.425 449.168 114.485 449.025 114.548C449.016 114.527 449.006 114.505 448.997 114.484ZM436.574 81.3645C436.619 81.3655 436.665 81.3676 436.712 81.3686V81.3676C436.72 81.2999 436.73 81.2322 436.74 81.1645C436.761 81.0261 436.782 80.8876 436.782 80.7492C436.786 77.6603 436.786 74.5713 436.784 71.4824C436.783 70.193 437.766 69.287 438.799 69.319C439.923 69.354 440.748 70.1631 440.788 71.2845C440.83 72.4717 440.822 73.661 440.813 74.8506C440.809 75.3433 440.806 75.836 440.806 76.3286C440.806 77.3177 440.806 78.3066 440.806 79.2955C440.807 82.065 440.808 84.8341 440.801 87.6032C440.798 88.7586 439.765 89.7769 438.678 89.6378C438.201 89.577 437.644 89.3007 437.334 88.941C436.691 88.1944 436.102 87.4009 435.513 86.6076C435.273 86.2849 435.034 85.9623 434.791 85.6429C434.421 85.1577 434.051 84.6732 433.68 84.1887C432.865 83.1221 432.049 82.0552 431.245 80.9801C430.663 80.2027 430.097 79.4144 429.531 78.6258C429.283 78.281 429.036 77.9362 428.787 77.5922L428.637 77.6046C428.629 77.6675 428.618 77.7303 428.607 77.793C428.583 77.9255 428.56 78.0578 428.56 78.19C428.558 79.2236 428.56 80.2574 428.561 81.2912C428.564 83.3974 428.566 85.5039 428.544 87.6104C428.53 88.838 427.675 89.5739 426.628 89.6522C425.56 89.7326 424.58 88.805 424.555 87.6671C424.531 86.5739 424.536 85.4801 424.54 84.3862C424.542 83.9527 424.544 83.5192 424.544 83.0857V71.3999C424.544 70.192 425.606 69.1788 426.685 69.3355C427.153 69.4035 427.717 69.6405 428.001 69.992C428.757 70.9241 429.467 71.8929 430.178 72.8619C430.517 73.3245 430.856 73.787 431.2 74.2456C431.943 75.2364 432.691 76.2236 433.44 77.2107C433.885 77.7977 434.33 78.3846 434.774 78.9723C435.198 79.533 435.619 80.0942 436.041 80.6555C436.218 80.8918 436.396 81.1282 436.574 81.3645ZM449.216 73.3692C449.14 73.3736 449.063 73.3781 448.982 73.3819V77.4304C449.049 77.4344 449.116 77.4393 449.181 77.4442C449.319 77.4544 449.453 77.4644 449.587 77.4644C450.387 77.4654 451.186 77.4635 451.986 77.4617C453.674 77.4577 455.362 77.4537 457.05 77.4768C458.328 77.4953 459.107 78.3642 459.138 79.4578C459.169 80.574 458.276 81.4933 457.127 81.5119C455.338 81.5406 453.549 81.5351 451.76 81.5297C451.044 81.5275 450.328 81.5253 449.613 81.5253H448.954V82.1458C448.954 82.6658 448.952 83.1859 448.95 83.7059C448.946 84.9018 448.942 86.0977 448.96 87.293C448.978 88.4288 448.5 89.1894 447.444 89.6068C446.77 89.8738 445.5 89.3585 445.181 88.502C445.043 88.1309 444.953 87.7176 444.952 87.3229C444.946 85.3102 444.947 83.2974 444.948 81.2846C444.948 78.0642 444.949 74.8437 444.925 71.6236C444.915 70.3074 445.949 69.2623 447.278 69.287C449.272 69.3232 451.267 69.3182 453.262 69.3132C454.562 69.31 455.861 69.3067 457.16 69.3149C458.385 69.3221 459.289 70.4486 459.13 71.5442C458.982 72.5708 458.3 73.319 457.021 73.3376C455.349 73.3622 453.676 73.358 452.003 73.3539C451.222 73.3519 450.442 73.35 449.661 73.351C449.515 73.3517 449.37 73.3602 449.216 73.3692ZM467.391 77.0161V73.3819H467.392C467.308 73.3778 467.229 73.3729 467.154 73.3684C467.005 73.3592 466.871 73.351 466.736 73.351C466.374 73.35 466.011 73.353 465.648 73.356C464.913 73.3622 464.177 73.3683 463.443 73.3407C462.191 73.2933 461.65 72.7048 461.284 71.6772C461.077 71.0928 461.623 69.8405 462.425 69.554C462.782 69.4272 463.17 69.32 463.545 69.3179C466.096 69.3074 468.646 69.3074 471.197 69.3074C472.625 69.3074 474.054 69.3074 475.482 69.3056C476.626 69.3035 477.655 70.4352 477.533 71.4329C477.401 72.4996 476.74 73.25 475.509 73.3293C474.726 73.3793 473.941 73.3692 473.155 73.3591C472.791 73.3544 472.426 73.3497 472.062 73.351C471.929 73.3517 471.795 73.3596 471.645 73.3685C471.569 73.373 471.489 73.3777 471.403 73.3819V74.0828C471.403 75.3406 471.403 76.5985 471.404 77.8564C471.404 81.0923 471.405 84.3282 471.396 87.564C471.393 88.7864 470.487 89.6079 469.473 89.6563C468.392 89.7078 467.401 88.7875 467.397 87.6156C467.387 84.9986 467.389 82.3817 467.39 79.7647C467.39 78.8485 467.391 77.9323 467.391 77.0161Z" fill="url(#paint1_linear_15_77)"/>
</g>
<defs>
<linearGradient id="paint0_linear_15_77" x1="440.5" y1="2" x2="393.5" y2="162.5" gradientUnits="userSpaceOnUse">
<stop stop-color="#FFB900"/>
<stop offset="1" stop-color="#FFB900" stop-opacity="0"/>
</linearGradient>
<linearGradient id="paint1_linear_15_77" x1="416" y1="27" x2="481.5" y2="129" gradientUnits="userSpaceOnUse">
<stop stop-color="#FFB900" stop-opacity="0"/>
<stop offset="0.47807" stop-color="#FFB900" stop-opacity="0.52193"/>
<stop offset="1" stop-color="#FFB900" stop-opacity="0"/>
</linearGradient>
<clipPath id="clip0_15_77">
<rect width="545" height="160" rx="16" fill="white"/>
</clipPath>
</defs>
</svg>
