<svg width="545" height="160" viewBox="0 0 545 160" fill="none" xmlns="http://www.w3.org/2000/svg">
<g clip-path="url(#clip0_15_86)">
<rect width="545" height="160" rx="16" fill="#212437"/>
<circle opacity="0.1" cx="468.5" cy="41.5" r="139.5" fill="url(#paint0_linear_15_86)"/>
<path opacity="0.8" fill-rule="evenodd" clip-rule="evenodd" d="M479.12 57.4014C479.645 56.8743 480.13 56.2644 480.472 55.607C480.946 54.6931 481.167 53.7593 481.145 52.8355C481.167 51.2089 480.405 49.5803 478.853 48.0288C477.211 46.3862 475.568 44.7451 473.924 43.104C470.527 39.7118 467.129 36.3194 463.746 32.9137C462.487 31.6463 461.194 30.4698 459.411 30H457.244C456.883 30.2146 456.503 30.4095 456.123 30.6042C455.305 31.0239 454.487 31.4434 453.864 32.0609C444.491 41.3559 435.174 50.7087 425.857 60.0615L425.855 60.0632L425.855 60.0637L425.854 60.0645L424.133 61.7916C423.608 62.3187 423.123 62.9287 422.781 63.586C422.307 64.5 422.086 65.4337 422.108 66.3576C422.086 67.9841 422.848 69.6127 424.4 71.1643C426.042 72.807 427.686 74.4483 429.329 76.0896L429.33 76.0902L429.331 76.0915C432.728 79.4829 436.125 82.8744 439.507 86.2794C440.766 87.5467 442.059 88.7232 443.842 89.1931H446.009C446.37 88.9784 446.75 88.7836 447.13 88.5888C447.948 88.1692 448.766 87.7497 449.389 87.1322C458.762 77.837 468.079 68.484 477.397 59.131L479.12 57.4014ZM401 99.6929C401.719 97.2846 403.505 95.9383 405.615 94.7874C409.471 92.6851 413.267 90.4722 417.061 88.2593C419.246 86.9841 421.376 86.9505 423.569 88.2159C427.855 90.6893 432.154 93.1391 436.453 95.5849C438.653 96.8365 439.728 98.7315 439.734 101.239C439.746 106.095 439.748 110.951 439.734 115.807C439.726 118.43 438.577 120.327 436.238 121.622C433.34 123.228 430.472 124.886 427.604 126.544L427.604 126.544C426.188 127.362 424.772 128.181 423.352 128.993C421.441 130.087 419.473 130.18 417.546 129.092C414.601 127.429 411.667 125.747 408.733 124.064C407.145 123.154 405.558 122.243 403.969 121.336C402.352 120.414 401.517 118.938 401.002 117.226V99.6889L401 99.6929ZM404.914 108.56H404.909C404.909 109.05 404.913 109.54 404.917 110.029C404.927 111.115 404.937 112.201 404.899 113.284C404.804 116.008 406.026 117.895 408.373 119.188C411.156 120.72 413.932 122.274 416.66 123.902C419.007 125.304 421.299 125.487 423.707 124.08C426.623 122.376 429.558 120.708 432.515 119.08C434.71 117.87 435.808 116.038 435.83 113.568C435.859 110.22 435.853 106.87 435.83 103.522C435.816 101.3 434.951 99.4658 433.003 98.3288C429.663 96.3804 426.293 94.4795 422.894 92.6338C421.236 91.7316 419.443 91.7435 417.791 92.6436C414.34 94.5268 410.916 96.4594 407.532 98.463C405.807 99.4836 404.952 101.13 404.92 103.147C404.9 104.397 404.905 105.646 404.91 106.895C404.912 107.45 404.914 108.005 404.914 108.56ZM471.381 71.7565C482.747 83.1288 494.114 94.5012 505.474 105.877H505.472C507.721 108.128 507.908 111.17 505.962 113.379C503.948 115.665 500.525 115.775 498.255 113.582C496.962 112.332 495.693 111.055 494.425 109.778L494.421 109.774C493.91 109.26 493.399 108.745 492.886 108.232C488.051 103.401 483.216 98.5691 478.381 93.7374L478.164 93.5207C473.392 88.7519 468.62 83.9831 463.848 79.2143C463.717 79.0834 463.592 78.9464 463.476 78.8192L463.476 78.8188L463.476 78.8187L463.476 78.8186C463.462 78.8037 463.449 78.7891 463.436 78.7745C463.403 78.7391 463.372 78.7046 463.341 78.6715C465.663 76.3366 467.925 74.0606 470.206 71.7642L470.775 71.1919C470.826 71.239 470.88 71.2879 470.936 71.3385L470.937 71.3394L470.937 71.3394L470.937 71.3394C471.079 71.4689 471.234 71.6091 471.381 71.7565ZM432.468 47.7899C434.951 45.2967 437.397 42.843 439.971 40.261C439.693 39.9924 439.416 39.7204 439.137 39.4474L439.136 39.4465L439.136 39.4464C438.51 38.833 437.879 38.2145 437.229 37.6178C436.382 36.84 435.204 36.7985 434.38 37.5862C432.795 39.1022 431.242 40.6577 429.724 42.2409C428.926 43.072 428.91 44.1557 429.676 44.9927C430.308 45.682 430.978 46.3346 431.633 46.9735C431.915 47.2476 432.194 47.5191 432.466 47.7899H432.468ZM431.951 110.07C431.954 109.581 431.956 109.092 431.956 108.604L431.952 108.606C431.952 108.122 431.949 107.637 431.946 107.153C431.939 105.996 431.931 104.839 431.966 103.684C431.998 102.607 431.575 101.896 430.64 101.377C427.637 99.7068 424.646 98.0071 421.666 96.2956C420.785 95.7903 419.98 95.7587 419.082 96.2779C416.075 98.013 413.053 99.7226 410.019 101.41C409.123 101.91 408.694 102.599 408.7 103.629C408.72 106.91 408.72 110.191 408.7 113.472C408.694 114.5 409.113 115.195 410.013 115.696C413.017 117.368 416.014 119.056 418.987 120.783C419.95 121.342 420.807 121.318 421.752 120.774C424.731 119.054 427.724 117.36 430.722 115.679C431.585 115.195 431.99 114.524 431.966 113.525C431.94 112.373 431.946 111.221 431.951 110.07Z" fill="url(#paint1_linear_15_86)"/>
</g>
<defs>
<linearGradient id="paint0_linear_15_86" x1="440.5" y1="2" x2="393.5" y2="162.5" gradientUnits="userSpaceOnUse">
<stop stop-color="#FFB900"/>
<stop offset="1" stop-color="#FFB900" stop-opacity="0"/>
</linearGradient>
<linearGradient id="paint1_linear_15_86" x1="422" y1="30" x2="525.068" y2="102.105" gradientUnits="userSpaceOnUse">
<stop stop-color="#FFB900" stop-opacity="0"/>
<stop offset="0.47807" stop-color="#FFB900" stop-opacity="0.52193"/>
<stop offset="1" stop-color="#FFB900" stop-opacity="0"/>
</linearGradient>
<clipPath id="clip0_15_86">
<rect width="545" height="160" rx="16" fill="white"/>
</clipPath>
</defs>
</svg>
