<svg width="45" height="45" viewBox="0 0 45 45" fill="none" xmlns="http://www.w3.org/2000/svg">
<path fill-rule="evenodd" clip-rule="evenodd" d="M30.329 33.2398C30.329 33.2398 29.375 32.1141 28.5801 31.1194C32.0514 30.1508 33.3763 28.0042 33.3763 28.0042C32.2899 28.711 31.2564 29.2084 30.329 29.5487C29.0041 30.0984 27.7321 30.4649 26.4867 30.6744C23.9429 31.1456 21.611 31.0147 19.6236 30.6482C18.1132 30.3602 16.8148 29.9414 15.7283 29.5225C15.1189 29.2869 14.4564 28.999 13.7939 28.6325C13.7542 28.6063 13.7144 28.5867 13.6747 28.567C13.6349 28.5474 13.5952 28.5278 13.5555 28.5016C13.5025 28.4754 13.476 28.4492 13.4495 28.4231C12.9725 28.1613 12.7075 27.978 12.7075 27.978C12.7075 27.978 13.9794 30.0723 17.3447 31.067C16.5498 32.0618 15.5693 33.2398 15.5693 33.2398C9.71318 33.0565 7.4873 29.2607 7.4873 29.2607C7.4873 20.8315 11.3031 13.999 11.3031 13.999C15.1189 11.1718 18.7492 11.2503 18.7492 11.2503L19.0141 11.5645C14.2444 12.9257 12.045 14.9938 12.045 14.9938C12.045 14.9938 12.628 14.6796 13.6085 14.2346C16.4438 13.0043 18.6962 12.6639 19.6236 12.5854L19.683 12.5755C19.8167 12.553 19.9353 12.5331 20.0741 12.5331C21.6905 12.3236 23.5189 12.2713 25.4268 12.4807C27.9441 12.7687 30.647 13.5016 33.4028 14.9938C33.4028 14.9938 31.3094 13.0304 26.8047 11.6692L27.1757 11.2503C27.1757 11.2503 30.806 11.1718 34.6217 13.999C34.6217 13.999 38.4375 20.8315 38.4375 29.2607C38.4375 29.2607 36.1851 33.0565 30.329 33.2398ZM18.7535 21.4895C17.255 21.4895 16.072 22.8371 16.072 24.4812C16.072 26.1253 17.2813 27.473 18.7535 27.473C20.252 27.473 21.435 26.1253 21.435 24.4812C21.4613 22.8371 20.252 21.4895 18.7535 21.4895ZM25.6676 24.4812C25.6676 22.8371 26.8506 21.4895 28.3491 21.4895C29.8476 21.4895 31.0307 22.8371 31.0307 24.4812C31.0307 26.1253 29.8476 27.473 28.3491 27.473C26.8769 27.473 25.6676 26.1253 25.6676 24.4812Z" fill="#777E91"/>
</svg>
