<svg width="45" height="45" viewBox="0 0 45 45" fill="none" xmlns="http://www.w3.org/2000/svg">
<path fill-rule="evenodd" clip-rule="evenodd" d="M35 14.8913C35 12.1901 32.8099 10 30.1087 10H14.8913C12.1901 10 10 12.1901 10 14.8913V30.1087C10 32.8099 12.1901 35 14.8913 35H30.1087C32.8099 35 35 32.8099 35 30.1087V14.8913ZM15.7066 22.5C15.7066 18.748 18.7484 15.7066 22.5 15.7066C26.2524 15.7066 29.2935 18.7476 29.2935 22.5C29.2935 26.2517 26.2521 29.2935 22.5 29.2935C18.7487 29.2935 15.7066 26.2514 15.7066 22.5ZM22.4999 17.3369C25.3519 17.3369 27.663 19.648 27.663 22.4999C27.663 25.3512 25.3515 27.663 22.4999 27.663C19.6491 27.663 17.3369 25.3508 17.3369 22.4999C17.3369 19.6484 19.6487 17.3369 22.4999 17.3369ZM28.4779 14.8911C28.4779 13.9911 29.2084 13.2607 30.1084 13.2607C31.0094 13.2607 31.7388 13.9911 31.7388 14.8911C31.7388 15.7911 31.0094 16.5216 30.1084 16.5216C29.2084 16.5216 28.4779 15.7911 28.4779 14.8911Z" fill="#777E91"/>
</svg>
