<svg width="28" height="23" viewBox="0 0 28 23" fill="none" xmlns="http://www.w3.org/2000/svg">
<path d="M13.7474 6.23516L13.8064 7.20835L12.8227 7.08919C9.24225 6.63238 6.11424 5.08321 3.45838 2.4814L2.15996 1.19042L1.82552 2.14376C1.11729 4.2689 1.56977 6.51321 3.04525 8.02266C3.83217 8.85683 3.65511 8.976 2.29767 8.47947C1.82552 8.32058 1.41239 8.20141 1.37304 8.26099C1.23533 8.40002 1.70748 10.2074 2.08127 10.9224C2.59277 11.9154 3.63544 12.8886 4.77647 13.4646L5.74045 13.9214L4.59941 13.9413C3.49772 13.9413 3.45838 13.9611 3.57642 14.3782C3.96988 15.6692 5.52405 17.0396 7.25527 17.6355L8.475 18.0525L7.41265 18.6881C5.83881 19.6017 3.98955 20.1181 2.14029 20.1578C1.255 20.1777 0.5271 20.2571 0.5271 20.3167C0.5271 20.5153 2.92721 21.6275 4.32399 22.0645C8.51434 23.3555 13.4916 22.7994 17.2295 20.5948C19.8853 19.0257 22.5412 15.9075 23.7806 12.8886C24.4495 11.2799 25.1184 8.34044 25.1184 6.9303C25.1184 6.01668 25.1774 5.89752 26.2791 4.80515C26.9283 4.1696 27.5381 3.47446 27.6562 3.27585C27.8529 2.89848 27.8332 2.89848 26.8299 3.23612C25.1577 3.83196 24.9216 3.75251 25.7479 2.85876C26.3578 2.2232 27.0857 1.07126 27.0857 0.733618C27.0857 0.674035 26.7906 0.773341 26.4561 0.952091C26.102 1.1507 25.3151 1.44862 24.7249 1.62737L23.6626 1.96501L22.6986 1.30959C22.1674 0.952091 21.4198 0.554868 21.0264 0.435701C20.0231 0.157645 18.4886 0.197367 17.5836 0.515146C15.1245 1.4089 13.5703 3.71279 13.7474 6.23516Z" fill="#777E91"/>
</svg>
